<svg version="1" xmlns="http://www.w3.org/2000/svg" width="1178.667" height="1074.667" viewBox="0 0 884 806"><path d="M152.3 48.7c-1 .3-1.3 6.3-1.3 25.2 0 20.7-.2 25-1.6 26.9-1.5 2.2-1.8 2.2-26.3 2.2-19.7 0-25.1.3-26 1.4-.8 1-1 88.4-.9 332.2l.3 330.9 330 .3c181.5.1 331 0 332.3-.3l2.2-.5v-49.1l2.5-2.4 2.4-2.5H815l.5-2.3c.3-1.2.4-150.7.3-332.2l-.3-330-331-.2c-182.1-.1-331.6.1-332.2.4zm655.5 331.7c.1 238.6-.1 324.2-.9 325.2-.9 1.1-5.5 1.4-21.1 1.4-19.8 0-19.9 0-22.3-2.5l-2.5-2.4V403.7c0-230.7-.3-298.6-1.2-299.5-.9-.9-68.9-1.2-299.8-1.2-186 0-299.1-.4-300-1-1.2-.8-1.6-4.6-1.8-22-.2-15.2 0-21.6.9-22.6 1-1.2 46-1.4 324.8-1.2l323.6.3.3 323.9zm-659-268.8l2.2 1.5v298.8c0 231 .3 299 1.2 299.9.9.9 68.8 1.2 299.3 1.2 268.1 0 298.3.2 300.3 1.6 2.2 1.5 2.2 1.9 2.2 22.9 0 21.4 0 21.5-2.2 22-1.3.3-147.4.4-324.8.3l-322.5-.3-.3-323.4c-.1-238.2.1-323.7.9-324.7 1.8-2.2 40.6-2 43.7.2zm603.4.1c1.7 1.6 1.8 12.1 1.8 296.9v295.3l-2.2 1.5c-2 1.4-31.7 1.6-296 1.6-292.5 0-293.8 0-295.8-2s-2-3.3-2-296.7c0-272.8.1-294.8 1.7-296.5 1.6-1.7 12.1-1.8 296.1-1.8 272.7 0 294.7.1 296.4 1.7z"/><path d="M380 244.1c-3.2 1.3-4 2.6-4 7.1 0 2.9.6 4.1 2.9 5.7 3.8 2.7 6.9 2.6 10.6-.3 2.2-1.8 2.9-3.1 2.9-6 0-2-.7-4.3-1.5-5.1-2-2-7.7-2.7-10.9-1.4zm68.3 4.1l-2.3 1.1V315l2.3.5c1.3.4 4.3.5 6.8.3l4.4-.3.5-5c.9-7.8 4.1-12.2 8.3-11.2 1.2.4 4 2.9 6.1 5.7 8.3 10.9 8.5 11 17 11 4.7 0 7.6-.4 7.6-1.1 0-1.1-14.2-20.3-17.1-23.2-3.3-3.2-2.3-5.5 6.2-13.8 10-9.8 10.1-11.4.8-11.4-6.5 0-6.7.1-12.3 5-3.1 2.7-7.7 6.8-10.2 9-3.7 3.2-4.7 3.7-5.4 2.5-.6-.8-1-8.7-1-17.6 0-11.1-.4-16.4-1.2-17.2-1.5-1.5-7.5-1.5-10.5 0zM307.8 252c-1.7 1-1.8 3.7-1.8 32v31l2.4.6c1.3.3 11.9.4 23.7.2l21.4-.3 4.2-2.7c5.2-3.4 7.3-6.5 8-11.8.8-6-1.4-11.6-6.1-15.7-3.6-3-3.9-3.6-2.5-4.6 2.5-1.8 5.9-9.2 5.9-12.7 0-5.1-3.5-10.6-8.7-13.7-4.7-2.7-5-2.8-24.8-3.1-13.1-.2-20.6.1-21.7.8zm36.1 12.5c4.9 2.5 4.7 9.6-.3 11.5-3.9 1.4-19.3 1.5-21.1 0-1.8-1.5-2-10.1-.3-11.8 1.8-1.8 18.2-1.6 21.7.3zm3.2 26.8c4.2 2.8 4.8 6.2 1.6 10.1-2.2 2.8-2.8 2.9-12.3 3.3-5.8.3-11 .1-12.6-.6-2.6-1-2.8-1.4-2.8-6.9 0-3.2.5-6.3 1.2-7 .8-.8 4.8-1.2 11.4-1.2 8.9 0 10.5.3 13.5 2.3zm62-35.4c-.8.5-1.7 3.1-2 5.7-.6 4.4-.9 4.9-3.8 5.6-2.3.6-3.5 1.6-3.9 3.3-.8 3.3 1.6 7.8 4.6 8.5 2.5.6 2.5.7 3.1 14.1.3 7.4 1.1 14.4 1.7 15.6 3.4 6.4 12.6 9.5 22.3 7.6 4-.8 4.4-1.1 4.7-4 .5-5.3-1.2-7.3-6.2-7.3-6.5 0-7.9-2.1-8.4-13.1-.5-10.1.8-12.9 5.7-12.9 4.6 0 7.3-2.7 6.9-6.8-.3-3.8-.4-3.9-9-5.7-2.3-.4-2.8-1.2-3.4-5-.4-2.9-1.3-4.9-2.5-5.5-2.2-1.2-7.9-1.3-9.8-.1zm117.4 9.6c-.5.2-3.6 1.1-6.7 2-11.8 3.3-17.7 13-16.5 27.2 1.2 15 14.5 24 32.1 21.8 6.7-.9 13.6-5.2 18-11.3 2.9-4.2 3.1-4.9 3.1-13.6 0-8.6-.2-9.4-3.3-14.1-4.1-6.4-6.7-8.2-15-10.6-6.4-1.8-9.5-2.2-11.7-1.4zm8.2 13.4c3 1.4 4.8 3.1 6.2 6 2.7 5.3 2.6 8.5-.4 13.7-5 8.4-16.4 8.4-21.2-.1-4.2-7.5-1.8-16.2 5.4-19.6 4.8-2.2 5-2.2 10 0zm45.8-11.9c-14.3 4.6-20.8 20.4-13.7 33.7 3.7 7 8.6 10.7 16.4 12.3 5.4 1.2 7 1.2 12.6-.3 3.5-.9 6.8-1.4 7.3-1.1 2 1.2.8 5.6-2.3 8.4-5.2 4.7-13.3 5.1-23.4.9-3.7-1.5-5.7-.9-8 2.5-2.9 4.6-1.3 7 6.3 9.7 5.4 1.9 8.6 2.4 15.8 2.3 13.4-.2 21-4.4 25.6-14 2.2-4.6 2.4-6.2 2.7-28.1.2-15.6 0-23.9-.8-25.2-1.4-2.7-7.9-2.9-12.1-.4-2.7 1.6-3.1 1.6-9.1-.5-7.5-2.7-9.5-2.7-17.3-.2zm17 12.1c5.4 2.5 6.7 4.6 6.8 10.6.1 11-12.9 16.1-21.6 8.4-2.8-2.6-3.1-3.5-3.1-8.4 0-6.3 1.2-8.2 6.9-10.8 5.1-2.3 5.6-2.3 11 .2zm45-12.1c-6.4 1.8-9.5 3.8-9.5 6.4 0 .6 1.1 2.4 2.4 4.1l2.4 3 5-1.8c6.8-2.3 11.9-2.2 15.9.5 2.4 1.7 3.3 3.1 3.3 5 0 2.8-.1 2.8-6.7 2.9-12.1.1-17.1 1.2-20.4 4.6-6.4 6.3-5.5 17.4 1.8 22.3 3.2 2.2 4.7 2.5 12.4 2.5 7.1 0 9.1-.3 10.8-1.9 2-1.8 2.2-1.8 3.9-.3 2.2 2 11.2 2.3 13 .5 1.7-1.7 1.6-26.6-.2-34.1-1.8-7.6-5.1-11-13.2-13.7-7.6-2.4-11.7-2.4-20.9 0zm20.5 31.8c0 4.3-4.9 8.5-10 8.5-7.3 0-11.1-6.2-6.2-10.1.9-.7 4.6-1.2 8.9-1.2h7.3v2.8zm51-32.1c-2.5.8-5.2 1.8-6.1 2.3-1.2.6-2.2.3-3.5-1.1-1.2-1.4-3-1.9-6.5-1.9-4.7 0-4.8.1-5.8 3.7-1.4 4.8-1.4 40.3-.1 43.7.9 2.3 1.5 2.6 6.3 2.6 2.9 0 5.8-.5 6.5-1.2.8-.8 1.2-5.3 1.3-13.2.1-14.5 1.3-19.6 5.3-21.5 5.5-2.6 13.3-1.1 15.3 2.9.4.8 1 8.5 1.3 17l.5 15.5h14l.3-16.6c.2-14.6 0-17.1-1.7-21-2.4-5.4-6.3-9.1-11.9-11.3-5-1.9-9-1.9-15.2.1zm-335.7 1c-1.6 1.6-1.8 3.8-1.3 24.8l.5 23h14l.3-23.2c.2-20 0-23.3-1.4-24.7-2.2-2.2-9.9-2.1-12.1.1z"/></svg>