<svg width="152" height="24" xmlns="http://www.w3.org/2000/svg"><g fill="none" fill-rule="evenodd"><path d="M81.723 11.948c0-6.95-4.372-9.69-8.353-9.69s-8.354 2.74-8.354 9.69c0 6.95 4.373 9.691 8.354 9.691 3.98 0 8.353-2.74 8.353-9.69zM73.37.006c6.95-.033 10.735 5.454 10.735 11.942S80.32 23.923 73.37 23.891c-6.95.032-10.736-5.455-10.736-11.943C62.634 5.46 66.419-.027 73.37.006zM47.558 21.09h-6.526V2.689h6.526c3.85 0 8.68 2.219 8.68 9.201 0 6.983-4.83 9.202-8.68 9.202m0-20.557h-8.875v22.71h8.875c6.82 0 11.03-4.867 11.03-11.355 0-6.487-4.21-11.355-11.03-11.355m53.283 20.555v2.154h-11.93V.534h2.349v20.557zm22.377 2.154h2.35V.534h-2.35zM151.37.534v22.71h-2.606L134.495 3.581v19.663h-2.154V.534h2.6l14.276 19.609V.534zm-43.828 2.154v7.244h9.822v2.153h-9.822v11.16h-2.35V.534h13.118v2.153z" fill="#000"/><path d="M10.556 23.89l-7.573-.003C1.99 23.887 0 23.141 0 20.901c0-1.987 1.405-2.441 2.734-4.23 1.142-1.535 1.619-2.988 1.619-4.726 0-1.737-.477-3.19-1.619-4.727C1.405 5.431 0 4.977 0 2.99 0 .75 1.989.003 2.983.003L10.556 0c6.314 0 11.837 3.495 11.837 11.945S16.87 23.891 10.556 23.891z" fill="#F82F38"/></g></svg>