<svg xmlns="http://www.w3.org/2000/svg" width="960" height="560"><path fill="#349CD6" d="M164.616 118.761l62.25-110.633v110.633zm68.726 0v-72.5l41.524 72.5z"/><path fill="#349CD6" d="M8.796 131.796l4.948-.845c3.23-.532 7.953-1.405 13.991-2.341l21.884-2.83 13.494-1.415c4.753-.488 9.75-1.032 14.978-1.408 10.45-.814 21.768-1.831 33.764-2.435l18.452-1.071 19.284-.791 9.899-.396 10.045-.274 20.441-.494c6.877-.16 13.812-.145 20.772-.227 6.966-.037 13.938-.167 20.949-.127l20.92.183 10.409.092c3.461.041 6.917.151 10.357.222 13.761.304 27.304.65 40.393 1.273 6.545.291 12.984.514 19.282.847l18.449 1.147c11.995.631 23.307 1.746 33.754 2.595 5.227.395 10.219.987 14.97 1.503l13.484 1.512c8.448 1.11 15.794 2.216 21.848 3.055 3.022.458 5.699 1.022 8.035 1.449l5.926 1.124 4.931.935-19.001-2.737c-6.075-.644-13.438-1.51-21.898-2.346l-13.505-1.074c-4.755-.365-9.743-.869-14.972-1.132l-16.295-.997c-5.627-.392-11.455-.64-17.445-.907l-18.431-.836-19.259-.619-9.884-.317-4.997-.155-5.031-.084-20.402-.375c-3.433-.06-6.875-.159-10.335-.188l-10.41-.057-20.921-.117c-6.954-.063-13.948.044-20.893.057-6.95.058-13.874.02-20.741.157l-20.411.349-10.032.172-9.885.296-19.262.559-18.435.763c-11.987.433-23.298 1.179-33.75 1.745-5.23.244-10.222.705-14.981 1.036l-13.513.98-21.916 2.122-19.054 2.422z"/><path d="M13.479 161.967h-1.002v-9.094h1.16l2.684 6.539 2.736-6.539h1.148v9.094h-1.049l.029-7.043h-.029l-.586 1.629-1.658 4.049h-1.189l-1.705-4.066-.539-1.477h-.029l.029 1.477v5.431zm28.008.275c-1.293 0-2.283-.498-2.971-1.494-.594-.863-.891-1.973-.891-3.328s.297-2.465.891-3.328c.688-.992 1.678-1.488 2.971-1.488s2.283.496 2.971 1.488c.598.863.896 1.973.896 3.328s-.299 2.465-.896 3.328c-.687.996-1.678 1.494-2.971 1.494zm0-.914c.934 0 1.631-.441 2.092-1.324.363-.695.545-1.557.545-2.584 0-1.023-.182-1.883-.545-2.578-.461-.887-1.158-1.33-2.092-1.33-.93 0-1.627.443-2.092 1.33-.363.695-.545 1.555-.545 2.578s.182 1.883.545 2.578c.465.887 1.163 1.33 2.092 1.33zm26.69-1.318h1.096v.059c0 .359-.123.725-.369 1.096-.48.719-1.318 1.078-2.514 1.078-1.336 0-2.348-.486-3.035-1.459-.602-.848-.902-1.969-.902-3.363s.301-2.518.902-3.369c.691-.969 1.705-1.453 3.041-1.453 1.191 0 2.027.361 2.508 1.084.246.379.369.742.369 1.09v.059h-1.096v-.059c0-.434-.193-.762-.58-.984-.312-.184-.699-.275-1.16-.275-.984 0-1.715.428-2.191 1.283-.379.68-.568 1.555-.568 2.625s.189 1.947.568 2.631c.473.855 1.201 1.283 2.186 1.283.473 0 .863-.09 1.172-.27.383-.223.574-.555.574-.996v-.06zm19.599 1.957h-1.184v-9.094h1.184v4.342l3.797-4.342h1.348l-3.756 4.266 4.336 4.828h-1.482l-4.242-4.752v4.752zm26.327.275c-1.293 0-2.283-.498-2.971-1.494-.594-.863-.891-1.973-.891-3.328s.297-2.465.891-3.328c.688-.992 1.678-1.488 2.971-1.488s2.283.496 2.971 1.488c.598.863.896 1.973.896 3.328s-.299 2.465-.896 3.328c-.688.996-1.678 1.494-2.971 1.494zm0-.914c.934 0 1.631-.441 2.092-1.324.363-.695.545-1.557.545-2.584 0-1.023-.182-1.883-.545-2.578-.461-.887-1.158-1.33-2.092-1.33-.93 0-1.627.443-2.092 1.33-.363.695-.545 1.555-.545 2.578s.182 1.883.545 2.578c.465.887 1.162 1.33 2.092 1.33zm25.371-4.142c1.363.332 2.045 1.098 2.045 2.297 0 .949-.428 1.662-1.283 2.139-.41.23-1.119.346-2.127.346h-2.725v-9.094h2.414c1.102 0 1.842.078 2.221.234.758.32 1.137.896 1.137 1.729-.001.995-.561 1.778-1.682 2.349zm-2.907-.358h1.137c.586 0 1.025-.078 1.318-.234.281-.152.511-.372.688-.659s.267-.591.267-.911c0-.824-.625-1.236-1.875-1.236h-1.535v3.04zm0 4.231h1.67c1.371 0 2.057-.496 2.057-1.488 0-.695-.371-1.219-1.113-1.57-.371-.172-.949-.258-1.734-.258h-.879v3.316zm27.868-1.049h1.096v.059c0 .359-.123.725-.369 1.096-.48.719-1.318 1.078-2.514 1.078-1.336 0-2.348-.486-3.035-1.459-.602-.848-.902-1.969-.902-3.363s.301-2.518.902-3.369c.691-.969 1.705-1.453 3.041-1.453 1.191 0 2.027.361 2.508 1.084.246.379.369.742.369 1.09v.059h-1.096v-.059c0-.434-.193-.762-.58-.984-.312-.184-.699-.275-1.16-.275-.984 0-1.715.428-2.191 1.283-.379.68-.568 1.555-.568 2.625s.189 1.947.568 2.631c.473.855 1.201 1.283 2.186 1.283.473 0 .863-.09 1.172-.27.383-.223.574-.555.574-.996v-.06zm19.599 1.957h-1.184v-9.094h1.184v4.342l3.797-4.342h1.348l-3.756 4.266 4.336 4.828h-1.482l-4.242-4.752v4.752zm29.496 0h-1.16l.047-7.424-4.471 7.424h-1.131v-9.094h1.16l-.059 7.447 4.436-7.447h1.178v9.094zm17.737 0v-9.094h5.139v1.002h-3.955v2.865h3.451v.908h-3.451v3.316h4.271v1.002h-5.455zm44.109 0h-1.184v-9.094h6.545v9.094h-1.184v-8.092h-4.178v8.092zm23.514 0h-1.096l3.727-9.094h1.195l3.439 9.094h-1.277l-.943-2.502h-4.014l-1.031 2.502zm1.388-3.41h3.305l-1.594-4.225-1.711 4.225zm24.112 3.41h-1.184v-9.094h2.531c.965 0 1.646.098 2.045.293.797.398 1.195 1.131 1.195 2.197 0 .98-.34 1.738-1.02 2.273-.621.492-1.436.738-2.443.738h-1.125v3.593zm0-4.5h.797c.812 0 1.424-.137 1.834-.41.488-.328.732-.875.732-1.641 0-.613-.186-1.049-.557-1.307-.309-.215-.787-.322-1.436-.322h-1.371v3.68zm24.24 4.5v-8.092h-3.094v-1.002h7.318v1.002h-3.047v8.092h-1.177zm22.459 0h-1.184v-9.094h1.184v4.049h4.178v-4.049h1.184v9.094h-1.184v-4.137h-4.178v4.137zm23.098 0v-9.094h5.139v1.002h-3.955v2.865h3.451v.908h-3.451v3.316h4.271v1.002h-5.455zm24.099 0h-1.184v-9.094h2.531c.965 0 1.646.098 2.045.293.797.398 1.195 1.131 1.195 2.197 0 .98-.34 1.738-1.02 2.273-.621.492-1.436.738-2.443.738h-1.125v3.593zm0-4.5h.797c.812 0 1.424-.137 1.834-.41.488-.328.732-.875.732-1.641 0-.613-.186-1.049-.557-1.307-.309-.215-.787-.322-1.436-.322h-1.371v3.68zm27.545 2.01c0 1.066-.398 1.797-1.195 2.191-.398.199-1.08.299-2.045.299h-2.479v-9.094h1.184v3.592h1.072c1.008 0 1.822.246 2.443.738.68.535 1.02 1.293 1.02 2.274zm-1.225-.053c0-.766-.244-1.312-.732-1.641-.41-.273-1.021-.41-1.834-.41h-.744v3.686h1.318c.645 0 1.123-.109 1.436-.328.371-.262.556-.698.556-1.307zm2.438-6.551h1.184v9.094h-1.184v-9.094z" fill="#349CD6" stroke="#349CD6" stroke-miterlimit="10"/></svg>