<svg xmlns="http://www.w3.org/2000/svg" xmlns:xlink="http://www.w3.org/1999/xlink" width="932.954" height="397.479"><rect width="100%" height="100%" fill="none"/><g class="currentLayer"><g class="selected"><defs><path id="a" d="M-12.114-44.603h960v496.532h-960z"/></defs><clipPath id="b"><use xlink:href="#a" overflow="visible"/></clipPath><path clip-path="url(#b)" fill="#FFF" d="M154.177 105.53a150.169 150.169 0 0 0-19.164 3.611c.442.015 1.761-.247 2.648-.355C202.9 100.863 262.411 145.731 270.58 209c8.171 63.269-38.095 120.982-103.333 128.904-65.241 7.926-124.751-36.941-132.921-100.213-1.968-15.245-.768-30.163 3.087-44.144-8.582 21.153-11.978 44.632-8.854 68.776 9.958 76.936 82.343 131.479 161.678 121.821 79.334-9.654 135.575-79.854 125.617-156.792-9.958-76.938-82.343-131.479-161.677-121.822"/><path clip-path="url(#b)" fill="#00B37F" d="M31.04 212.918c-.854 9.014-1.342 17.984-.773 27 1.46 23.159 8.597 44.536 21.989 63.73 22.675 32.499 54.119 51.78 94.302 57.116 28.556 3.795 55.736-1.045 80.815-14.725 7.496-4.089 12.592-11.219 12.983-20.382.145-3.368-1.348-6.146-3.819-8.178-3.307-2.72-6.765-5.12-11.128-6.498-17.009-5.372-34.544-7.026-52.229-7.23-35.505-.412-62.362-16-82.757-43.354-1.599-2.145-3.099-4.356-5.006-7.047 8.897.797 17.08 2.055 25.234 3.428 40.701 6.87 79.855 18.838 118.148 33.672 1.74.674 2.975 2.473 5.159 2.151.645-.097 1.441.214 1.534-.792.05-.564-.153-.88-.742-1.257-4.022-2.557-7.867-5.386-11.962-7.821-7.092-4.221-14.562-7.758-22.235-10.878-18.661-7.597-38.295-12.143-57.742-17.267-17.345-4.57-34.549-9.482-50.653-17.468-30.038-14.897-47.475-38.966-54.843-70.428-.735-3.143-1.316-6.318-1.956-9.479-.041-.202.035-.424.123-1.311 73.149 27.404 145.072 56.638 208.958 102.125.131-1.839-.986-2.272-1.653-2.939-17.269-17.305-37.148-31.383-58.14-44.055-25.443-15.361-52.189-28.255-79.529-40.139-19.717-8.57-39.076-17.971-55.566-31.973-19.312-16.398-30.865-37.177-37.159-61.012C6.47 55.476 5.523 32.656 6.634 9.673c.039-.809-.178-1.754.738-2.657 5.441 8.45 11.212 16.581 17.731 24.171 5.491 6.393 10.717 13.084 16.849 18.856 11.499 10.823 23.344 21.305 35.636 31.318 13.791 11.237 28.438 21.375 42.824 31.824 7.707 5.599 15.853 10.726 23.771 16.099 27.908 18.936 56.409 37.101 82.673 58.222 16.694 13.426 32.679 27.567 44.436 45.545 8.663 13.248 13.994 27.46 13.162 43.43-.239 4.572-.943 9.063-2.184 13.477-.168.6-.755 1.203.227 1.626.625.269.903-.324 1.007-.606 3.066-8.324 7.154-16.261 9.439-24.892 8.437-31.864 5.654-62.638-9.53-92.113-14.832-28.791-37.837-49.282-68.314-61.929-1.132-.47-8.465-3.449-9.612-3.887 21.013 4.449 47.79 16.904 65.017 31.048 17.291 14.195 30.75 31.259 40.035 51.331 27.262 58.925 11.945 130.037-43.189 172.636-53.828 41.589-128.798 42.205-183.174 1.841-55.49-41.187-67.278-106.898-53.136-152.095m546.569-99.219c2.715-2.58 5.927-3.873 9.645-3.873h1.507c3.815 0 7.055 1.268 9.717 3.8 2.662 2.534 3.994 5.698 3.994 9.498 0 3.604-1.307 6.721-3.917 9.351-2.613 2.63-5.877 3.944-9.794 3.944h-1.507c-3.518 0-6.38-.972-8.588-2.922-2.212-1.948-3.667-4.09-4.37-6.428a7.909 7.909 0 0 1-.603-2.045 12.866 12.866 0 0 1-.151-1.899c0-3.703 1.355-6.844 4.067-9.426"/><path clip-path="url(#b)" fill="#FFF" d="M370.594 119.407h31.038v40.913l30.285-40.913h36.16l-40.078 49.536 41.133 52.747h-38.42l-29.08-41.79v41.79h-31.038zm159.708 31.709h26.818v70.574h-26.817v-6.575c-2.612 2.728-5.777 4.918-9.493 6.575-3.718 1.656-7.986 2.485-12.805 2.485l-1.507.145c-10.951-.096-19.338-3.944-25.164-11.543-5.826-7.598-8.737-16.412-8.737-26.447 0-1.168.049-2.384.15-3.652.099-1.266.249-2.533.451-3.8 1.104-7.598 4.294-14.562 9.567-20.895 5.275-6.331 13.183-9.497 23.732-9.497h1.507c4.117 0 8.006.635 11.675 1.899 3.668 1.267 7.208 3.798 10.623 7.597v-6.866zm-3.165 47.414c2.812-2.97 4.219-7.037 4.219-12.201 0-5.063-1.407-9.108-4.219-12.127-2.811-3.018-6.43-4.578-10.847-4.675-4.823.196-8.438 1.851-10.848 4.967-2.413 3.119-3.769 6.527-4.069 10.228v1.608c0 4.288 1.205 8.134 3.616 11.543 2.41 3.411 6.177 5.212 11.301 5.407 4.418-.196 8.037-1.777 10.847-4.75m74.882-47.414v70.574h-27.875v-70.574h1.507zm48.288 3.069c1.658-1.169 3.34-2.094 5.05-2.778 1.604-.68 3.236-1.168 4.895-1.46s3.188-.439 4.597-.439h1.507c.398 0 .878.025 1.433.073.548.051 1.127.074 1.729.074.199.097.399.146.602.146h.604c.502.098.979.171 1.431.218.452.05.779.072.98.072v22.502h-1.507a3.925 3.925 0 0 0-.904-.438 15.928 15.928 0 0 0-1.055-.293 8.141 8.141 0 0 0-1.807-.365 27.056 27.056 0 0 0-2.109-.072c-4.923.099-8.689 1.194-11.303 3.286-2.612 2.097-4.47 4.41-5.574 6.942-1.106 2.242-1.731 4.336-1.882 6.284-.151 1.949-.226 3.166-.226 3.651v30.101h-27.877v-70.574h26.821v7.305c1.406-1.654 2.937-3.067 4.595-4.235m39.323 59.104c-7.285-7.254-10.924-16.243-10.924-26.959 0-10.423 3.59-19.336 10.772-26.74 7.181-7.402 18.104-11.104 32.771-11.104h1.507c14.664 0 25.588 3.702 32.771 11.104 7.181 7.403 10.772 16.316 10.772 26.74 0 10.426-3.592 19.337-10.772 26.74-7.183 7.403-18.106 11.105-32.771 11.105l-1.507.145c-14.463-.097-25.339-3.775-32.619-11.031m42.713-10.594c2.112-2.046 3.616-4.286 4.521-6.722.804-2.142 1.281-4.114 1.432-5.918.152-1.8.227-3.043.227-3.726 0-5.454-1.308-10.009-3.918-13.661-2.612-3.654-6.478-5.576-11.601-5.773-5.225.198-9.114 2.12-11.677 5.773-2.562 3.652-3.843 8.207-3.843 13.661 0 .683.077 1.925.226 3.726.15 1.805.627 3.776 1.431 5.918.905 2.338 2.412 4.529 4.523 6.575 2.106 2.046 5.22 3.168 9.34 3.361 4.117-.097 7.232-1.168 9.339-3.214m50.024-3.068h1.504c.605.39 1.284.779 2.035 1.169.753.389 1.584.828 2.485 1.314 2.012.974 4.297 1.877 6.856 2.703 2.561.829 5.248 1.293 8.062 1.389 1.807-.096 3.213-.413 4.218-.95 1.002-.534 1.709-1.097 2.109-1.681.303-.487.504-.924.604-1.313a4.25 4.25 0 0 0 .15-1.023c0-1.559-.552-2.727-1.655-3.508a12.508 12.508 0 0 0-3.619-1.753c-.503-.096-1.029-.194-1.581-.293a67.654 67.654 0 0 1-1.581-.291c-7.233-1.07-13.135-3.117-17.703-6.138-4.574-3.018-6.857-8.328-6.857-15.927 0-.972.051-1.995.148-3.068a18.3 18.3 0 0 1 .605-3.214c1.104-4.676 3.843-8.936 8.212-12.785 4.368-3.848 11.323-5.771 20.866-5.771h1.51c4.114 0 8.608.438 13.481 1.314 4.873.876 9.871 2.484 14.994 4.822l-8.287 16.365h-1.51c-.3-.194-.576-.364-.824-.511a3.285 3.285 0 0 1-.68-.512c-2.611-1.558-5.175-2.703-7.685-3.433-2.512-.733-4.771-1.144-6.78-1.243-2.109.099-3.667.488-4.671 1.168-1.006.683-1.658 1.413-1.958 2.192-.303.488-.479.975-.528 1.46a11.41 11.41 0 0 0-.074 1.169v1.169c.198 1.073.979 2.095 2.335 3.068 1.355.975 4.24 1.705 8.663 2.192 1.204.098 2.712.291 4.521.584 1.807.292 3.667.782 5.576 1.461 3.212 1.267 6.174 3.36 8.889 6.283 2.711 2.922 4.066 7.307 4.066 13.15 0 6.333-2.31 12.127-6.93 17.387-4.621 5.261-13.058 7.892-25.313 7.892l-1.507.146c-6.127-.099-11.551-.709-16.271-1.827a44.843 44.843 0 0 1-13.261-5.479l7.386-17.677zm-411.773 65.898h64.789v24.549h-33.751v15.341h30.586v23.526h-30.586v38.869h-31.038zm81.06-5.71c2.712-2.58 5.925-3.872 9.642-3.872h1.508c3.815 0 7.054 1.269 9.718 3.8 2.659 2.535 3.991 5.697 3.991 9.497 0 3.606-1.307 6.722-3.918 9.352-2.61 2.632-5.875 3.947-9.792 3.947h-1.508c-3.518 0-6.379-.974-8.588-2.923-2.21-1.947-3.668-4.092-4.37-6.431a7.894 7.894 0 0 1-.602-2.045c-.1-.681-.151-1.315-.151-1.9.001-3.699 1.357-6.843 4.07-9.425m24.41 37.417v70.578h-27.876v-70.578h1.507zm54.313-.218c3.765-1.607 7.956-2.411 12.579-2.411h1.507c8.034 0 13.863 2 17.478 5.991 3.614 3.994 5.977 8.379 7.082 13.15a37.605 37.605 0 0 1 1.13 6.867c.148 2.241.226 4.238.226 5.991v41.207h-27.873v-38.868c0-.681-.027-1.559-.074-2.633a24.221 24.221 0 0 0-.379-3.214c-.402-1.752-1.205-3.382-2.41-4.894-1.207-1.51-3.115-2.358-5.726-2.559-3.819.2-6.957 1.852-9.416 4.969-2.462 3.121-3.693 7.258-3.693 12.421v34.777h-27.871v-70.577h27.871v6.431c2.611-2.823 5.801-5.04 9.569-6.648m109.608.218h26.821v70.577h-26.82v-6.576c-2.611 2.728-5.776 4.918-9.49 6.576-3.717 1.652-7.985 2.481-12.808 2.481l-1.507.148c-10.95-.098-19.336-3.946-25.161-11.542-5.828-7.6-8.74-16.415-8.74-26.45 0-1.17.05-2.385.151-3.652.1-1.265.248-2.531.454-3.801 1.103-7.597 4.293-14.56 9.565-20.892 5.273-6.332 13.184-9.5 23.73-9.5h1.507c4.117 0 8.01.634 11.677 1.898 3.667 1.27 7.207 3.801 10.621 7.602v-6.869zm-3.162 47.415c2.81-2.969 4.219-7.035 4.219-12.2 0-5.064-1.409-9.107-4.219-12.125-2.813-3.02-6.43-4.58-10.849-4.68-4.823.2-8.438 1.854-10.847 4.969-2.412 3.121-3.768 6.526-4.07 10.229v1.607c0 4.288 1.207 8.135 3.616 11.542 2.411 3.41 6.179 5.215 11.301 5.409 4.419-.194 8.035-1.777 10.849-4.751m84.299-47.633c3.766-1.607 7.957-2.411 12.58-2.411h1.507c8.036 0 13.86 2 17.478 5.991 3.616 3.994 5.974 8.379 7.081 13.15a37.605 37.605 0 0 1 1.13 6.867 90.79 90.79 0 0 1 .226 5.991v41.207h-27.875v-38.868c0-.681-.024-1.559-.074-2.633a23.884 23.884 0 0 0-.376-3.214c-.402-1.752-1.205-3.382-2.41-4.894-1.206-1.51-3.115-2.358-5.726-2.559-3.819.2-6.957 1.852-9.417 4.969-2.463 3.121-3.692 7.258-3.692 12.421v34.777h-27.871v-70.577h27.871v6.431c2.61-2.823 5.8-5.04 9.568-6.648m113.528 68.02c-.303.098-1.032.411-2.186.949-1.156.535-2.69 1.095-4.597 1.678-2.109.585-4.546 1.171-7.308 1.753-2.764.586-5.75.877-8.965.877l-1.507.146c-12.354-.095-21.62-3.966-27.796-11.615-6.181-7.647-9.269-16.438-9.269-26.374 0-10.323 3.188-19.215 9.568-26.666 6.378-7.452 15.541-11.179 27.496-11.179h1.507c1.81 0 3.542.1 5.197.291 1.658.197 3.339.439 5.049.731a68.053 68.053 0 0 1 6.178 1.829c2.109.728 4.317 1.63 6.631 2.701v22.21h-1.507c-2.413-2.239-5.05-3.993-7.912-5.261-2.861-1.264-5.751-1.946-8.664-2.046-5.023.198-8.74 2.024-11.148 5.479-2.41 3.462-3.616 7.479-3.616 12.059 0 4.772 1.355 8.764 4.069 11.978 2.712 3.218 6.629 4.923 11.752 5.116 2.008-.097 4.315-.606 6.931-1.535 2.609-.924 5.473-2.752 8.589-5.477h1.507v22.356zm81.735-5.19c-3.566 3.266-7.259 5.678-11.074 7.234-3.918 1.46-7.685 2.358-11.301 2.703-3.616.339-6.43.51-8.438.51l-1.506.148c-10.95-.098-20.416-3.311-28.4-9.644-7.986-6.334-11.979-15.782-11.979-28.349 0-10.907 3.49-19.942 10.473-27.104 6.978-7.161 16.848-10.74 29.606-10.74h1.507c11.851 0 20.64 2.728 26.366 8.183 5.726 5.456 9.591 11.449 11.601 17.974.802 2.729 1.356 5.406 1.658 8.036.299 2.63.453 5.066.453 7.305v2.046h-55.447v.731a20.11 20.11 0 0 0 .302 3.505c.602 3.122 2.057 5.993 4.369 8.624 2.308 2.628 5.725 3.996 10.244 4.09 3.413-.195 6.275-1.022 8.589-2.483 2.31-1.462 3.815-3.556 4.521-6.284h26.819c-2.011 5.75-4.798 10.252-8.363 13.515m-17.857-35.578c-.2-3.507-1.43-6.721-3.688-9.644-2.262-2.923-5.704-4.479-10.321-4.678-4.12.199-7.434 1.682-9.944 4.456-2.514 2.777-3.867 6.065-4.068 9.865h28.021z"/></g></g></svg>