<svg xmlns="http://www.w3.org/2000/svg" viewBox="0 0 1500 800"><path fill="#091234" d="M259.8 241.9c-10.2 1.3-20.2 3.3-29.9 5.8.7 0 2.8-.4 4.1-.6 101.9-12.8 194.9 59.5 207.7 161.5 12.8 101.9-59.5 194.9-161.5 207.7-101.9 12.8-194.9-59.5-207.6-161.5-3.1-24.6-1.2-48.6 4.8-71.1-13.4 34.1-18.7 71.9-13.8 110.8 15.6 124 128.7 211.8 252.6 196.3 124-15.6 211.8-128.7 196.3-252.6S383.8 226.3 259.8 241.9z"/><path fill="#00B381" d="M67.4 414.9c-1.3 14.5-2.1 29-1.2 43.5 2.3 37.3 13.4 71.8 34.4 102.7 35.4 52.4 84.6 83.4 147.3 92 44.6 6.1 87.1-1.7 126.3-23.7 11.7-6.6 19.7-18.1 20.3-32.8.2-5.4-2.1-9.9-6-13.2-5.2-4.4-10.6-8.3-17.4-10.5-26.6-8.7-54-11.3-81.6-11.6-55.5-.7-97.4-25.8-129.3-69.9-2.5-3.5-4.8-7-7.8-11.4 13.9 1.3 26.7 3.3 39.4 5.5 63.6 11.1 124.8 30.3 184.6 54.2 2.7 1.1 4.6 4 8.1 3.5 1-.2 2.3.3 2.4-1.3.1-.9-.2-1.4-1.2-2-6.3-4.1-12.3-8.7-18.7-12.6-11.1-6.8-22.8-12.5-34.7-17.5-29.2-12.2-59.8-19.6-90.2-27.8-27.1-7.4-54-15.3-79.1-28.1-46.9-24-74.2-62.8-85.7-113.5-1.1-5.1-2.1-10.2-3.1-15.3-.1-.3.1-.7.2-2.1 114.3 44.2 226.7 91.3 326.5 164.5.2-3-1.5-3.7-2.6-4.7-27-27.9-58-50.6-90.8-71-39.8-24.7-81.5-45.5-124.3-64.7-30.8-13.8-61.1-29-86.8-51.5-30.2-26.4-48.2-59.9-58.1-98.3-9.3-36.1-10.7-72.9-9-109.9.1-1.3-.3-2.8 1.2-4.3C39 96.7 48 109.8 58.2 122c8.6 10.3 16.7 21.1 26.3 30.4 18 17.4 36.5 34.3 55.7 50.5 21.5 18.1 44.4 34.4 66.9 51.3 12 9 24.8 17.3 37.1 25.9 43.6 30.5 88.1 59.8 129.2 93.8 26.1 21.6 51.1 44.4 69.4 73.4 13.5 21.3 21.9 44.2 20.6 70-.4 7.4-1.5 14.6-3.4 21.7-.3 1-1.2 1.9.4 2.6 1 .4 1.4-.5 1.6-1 4.8-13.4 11.2-26.2 14.7-40.1 13.2-51.3 8.8-100.9-14.9-148.4-23.2-46.4-59.1-79.4-106.7-99.8-1.8-.8-13.2-5.6-15-6.3 32.8 7.2 74.7 27.2 101.6 50 27 22.9 48 50.4 62.6 82.7 42.6 94.9 18.7 209.5-67.5 278.1-84.1 67-201.2 68-286.2 3-86.9-66.2-105.3-172.1-83.2-244.9zm854-159.8c4.2-4.2 9.3-6.2 15.1-6.2h2.4c6 0 11 2 15.2 6.1 4.2 4.1 6.2 9.2 6.2 15.3 0 5.8-2 10.8-6.1 15.1-4.1 4.2-9.2 6.4-15.3 6.4h-2.4c-5.5 0-10-1.6-13.4-4.7-3.5-3.1-5.7-6.6-6.8-10.4-.5-1.1-.8-2.2-.9-3.3-.2-1.1-.2-2.1-.2-3.1-.1-6 2-11.1 6.2-15.2z"/><path d="M598 264.2h48.5v65.9l47.3-65.9h56.5L687.7 344l64.3 85h-60.1l-45.4-67.3V429H598V264.2zm249.5 51.1h41.9V429h-42v-10.6c-4.1 4.4-9 7.9-14.8 10.6-5.8 2.7-12.5 4-20 4l-2.4.2c-17.1-.2-30.2-6.4-39.3-18.6-9.1-12.2-13.7-26.4-13.7-42.6 0-1.9.1-3.8.2-5.9.2-2 .4-4.1.7-6.1 1.7-12.2 6.7-23.5 14.9-33.7 8.2-10.2 20.6-15.3 37.1-15.3h2.4c6.4 0 12.5 1 18.2 3.1 5.7 2 11.3 6.1 16.6 12.2v-11zm-4.9 76.4c4.4-4.8 6.6-11.3 6.6-19.7 0-8.2-2.2-14.7-6.6-19.5-4.4-4.9-10-7.4-17-7.5-7.5.3-13.2 3-17 8-3.8 5-5.9 10.5-6.4 16.5v2.6c0 6.9 1.9 13.1 5.7 18.6 3.8 5.5 9.7 8.4 17.7 8.7 6.9-.3 12.6-2.9 17-7.7zm117-76.4V429H916V315.3h2.4zm75.4 5c2.6-1.9 5.2-3.4 7.9-4.5 2.5-1.1 5.1-1.9 7.7-2.4 2.6-.5 5-.7 7.2-.7h2.4c.6 0 1.4 0 2.2.1.9.1 1.8.1 2.7.1.3.2.6.2.9.2h.9c.8.2 1.5.3 2.2.4.7.1 1.2.1 1.5.1v36.3h-2.4c-.5-.3-.9-.5-1.4-.7-.5-.2-1-.3-1.6-.5-.9-.3-1.9-.5-2.8-.6-.9-.1-2-.1-3.3-.1-7.7.2-13.6 1.9-17.7 5.3s-7 7.1-8.7 11.2c-1.7 3.6-2.7 7-2.9 10.1-.2 3.1-.4 5.1-.4 5.9V429h-43.6V315.3h42v11.8c2.2-2.7 4.6-4.9 7.2-6.8zm61.5 95.2c-11.4-11.7-17.1-26.2-17.1-43.4 0-16.8 5.6-31.2 16.8-43.1 11.2-11.9 28.3-17.9 51.2-17.9h2.4c22.9 0 40 6 51.2 17.9 11.2 11.9 16.8 26.3 16.8 43.1s-5.6 31.2-16.8 43.1c-11.2 11.9-28.3 17.9-51.2 17.9l-2.4.2c-22.6-.2-39.5-6.1-50.9-17.8zm66.7-17.1c3.3-3.3 5.6-6.9 7.1-10.8 1.3-3.5 2-6.6 2.2-9.5.2-2.9.4-4.9.4-6 0-8.8-2-16.1-6.1-22-4.1-5.9-10.1-9-18.1-9.3-8.2.3-14.2 3.4-18.2 9.3s-6 13.2-6 22c0 1.1.1 3.1.4 6 .2 2.9 1 6.1 2.2 9.5 1.4 3.8 3.8 7.3 7.1 10.6s8.2 5.1 14.6 5.4c6.3-.1 11.1-1.9 14.4-5.2zm78.2-4.9h2.4c.9.6 2 1.3 3.2 1.9 1.2.6 2.5 1.3 3.9 2.1 3.1 1.6 6.7 3 10.7 4.4 4 1.3 8.2 2.1 12.6 2.2 2.8-.2 5-.7 6.6-1.5 1.6-.9 2.7-1.8 3.3-2.7.5-.8.8-1.5.9-2.1.2-.6.2-1.2.2-1.6 0-2.5-.9-4.4-2.6-5.7-1.7-1.3-3.6-2.2-5.7-2.8-.8-.2-1.6-.3-2.5-.5-.9-.2-1.7-.3-2.5-.5-11.3-1.7-20.5-5-27.7-9.9-7.1-4.9-10.7-13.4-10.7-25.7 0-1.6.1-3.2.2-4.9.2-1.7.5-3.4.9-5.2 1.7-7.5 6-14.4 12.8-20.6 6.8-6.2 17.7-9.3 32.6-9.3h2.4c6.4 0 13.5.7 21.1 2.1 7.6 1.4 15.4 4 23.4 7.8l-12.9 26.4h-2.4c-.5-.3-.9-.6-1.3-.8-.4-.2-.7-.5-1.1-.8-4.1-2.5-8.1-4.4-12-5.5-3.9-1.2-7.5-1.8-10.6-2-3.3.2-5.7.8-7.3 1.9-1.6 1.1-2.6 2.3-3.1 3.5-.5.8-.7 1.6-.8 2.4-.1.8-.1 1.4-.1 1.9v1.8c.3 1.7 1.5 3.4 3.6 4.9 2.1 1.6 6.6 2.7 13.5 3.5 1.9.2 4.2.5 7.1.9 2.8.5 5.7 1.3 8.7 2.4 5 2 9.7 5.4 13.9 10.1 4.2 4.7 6.4 11.8 6.4 21.2 0 10.2-3.6 19.5-10.8 28-7.2 8.5-20.4 12.7-39.6 12.7l-2.4.2c-9.6-.2-18-1.1-25.4-2.9-7.4-1.8-14.3-4.7-20.7-8.8l11.8-28.5zM598 499.7h101.3v39.6h-52.7V564h47.8v37.9h-47.8v62.6H598V499.7zm126.6-9.2c4.2-4.2 9.3-6.2 15.1-6.2h2.4c6 0 11 2 15.2 6.1 4.2 4.1 6.2 9.2 6.2 15.3 0 5.8-2 10.8-6.1 15.1-4.1 4.2-9.2 6.4-15.3 6.4h-2.4c-5.5 0-10-1.6-13.4-4.7-3.5-3.1-5.7-6.6-6.8-10.4-.5-1.1-.8-2.2-.9-3.3-.2-1.1-.2-2.1-.2-3.1-.1-6 2-11.1 6.2-15.2zm38.2 60.3v113.7h-43.6V550.8h2.4zm84.8-.4c5.9-2.6 12.4-3.9 19.7-3.9h2.4c12.6 0 21.7 3.2 27.3 9.7 5.6 6.4 9.3 13.5 11.1 21.2.9 3.8 1.5 7.5 1.8 11.1.2 3.6.4 6.8.4 9.7v66.4h-43.6V602c0-1.1 0-2.5-.1-4.2-.1-1.7-.3-3.4-.6-5.2-.6-2.8-1.9-5.5-3.8-7.9-1.9-2.4-4.9-3.8-8.9-4.1-6 .3-10.9 3-14.7 8-3.8 5-5.8 11.7-5.8 20v56h-43.6V550.8h43.6v10.4c4-4.6 9-8.2 14.8-10.8zm171.3.4h41.9v113.7h-42v-10.6c-4.1 4.4-9 7.9-14.8 10.6-5.8 2.7-12.5 4-20 4l-2.4.2c-17.1-.2-30.2-6.4-39.3-18.6-9.1-12.2-13.7-26.4-13.7-42.6 0-1.9.1-3.8.2-5.9.2-2 .4-4.1.7-6.1 1.7-12.2 6.7-23.5 14.9-33.7 8.2-10.2 20.6-15.3 37.1-15.3h2.4c6.4 0 12.5 1 18.2 3.1 5.7 2 11.3 6.1 16.6 12.2v-11zm-4.9 76.3c4.4-4.8 6.6-11.3 6.6-19.7 0-8.2-2.2-14.7-6.6-19.5-4.4-4.9-10-7.4-17-7.5-7.5.3-13.2 3-17 8-3.8 5-5.9 10.5-6.4 16.5v2.6c0 6.9 1.9 13.1 5.7 18.6 3.8 5.5 9.7 8.4 17.7 8.7 6.9-.3 12.6-2.9 17-7.7zm131.7-76.7c5.9-2.6 12.4-3.9 19.7-3.9h2.4c12.6 0 21.7 3.2 27.3 9.7 5.6 6.4 9.3 13.5 11.1 21.2.9 3.8 1.5 7.5 1.8 11.1.2 3.6.4 6.8.4 9.7v66.4h-43.6V602c0-1.1 0-2.5-.1-4.2-.1-1.7-.3-3.4-.6-5.2-.6-2.8-1.9-5.5-3.8-7.9-1.9-2.4-4.9-3.8-8.9-4.1-6 .3-10.9 3-14.7 8-3.8 5-5.8 11.7-5.8 20v56h-43.6V550.8h43.6v10.4c3.9-4.6 8.9-8.2 14.8-10.8zM1323.1 660c-.5.2-1.6.7-3.4 1.5-1.8.9-4.2 1.8-7.2 2.7-3.3.9-7.1 1.9-11.4 2.8-4.3.9-9 1.4-14 1.4l-2.4.2c-19.3-.2-33.8-6.4-43.4-18.7-9.7-12.3-14.5-26.5-14.5-42.5 0-16.6 5-31 14.9-43 10-12 24.3-18 43-18h2.4c2.8 0 5.5.2 8.1.5 2.6.3 5.2.7 7.9 1.2 3.1.8 6.4 1.8 9.7 2.9 3.3 1.2 6.7 2.6 10.4 4.4v35.8h-2.4c-3.8-3.6-7.9-6.4-12.4-8.5-4.5-2-9-3.1-13.5-3.3-7.9.3-13.7 3.3-17.4 8.8-3.8 5.6-5.7 12-5.7 19.4 0 7.7 2.1 14.1 6.4 19.3 4.2 5.2 10.4 7.9 18.4 8.2 3.1-.2 6.7-1 10.8-2.5 4.1-1.5 8.6-4.4 13.4-8.8h2.4V660zm127.7-8.4c-5.6 5.3-11.3 9.1-17.3 11.7-6.1 2.4-12 3.8-17.7 4.4-5.6.5-10 .8-13.2.8l-2.4.2c-17.1-.2-31.9-5.3-44.4-15.5s-18.7-25.4-18.7-45.7c0-17.6 5.5-32.1 16.4-43.7 10.9-11.5 26.3-17.3 46.3-17.3h2.4c18.5 0 32.3 4.4 41.2 13.2 8.9 8.8 15 18.4 18.1 29 1.3 4.4 2.1 8.7 2.6 12.9.5 4.2.7 8.2.7 11.8v3.3h-86.6v1.2c0 .9 0 1.9.1 2.8.1.9.2 1.9.4 2.8.9 5 3.2 9.7 6.8 13.9 3.6 4.2 8.9 6.4 16 6.6 5.3-.3 9.8-1.6 13.4-4 3.6-2.4 6-5.7 7.1-10.1h42c-3.3 9.2-7.7 16.5-13.2 21.7zm-27.9-57.3c-.3-5.7-2.2-10.8-5.8-15.5-3.5-4.7-8.9-7.2-16.1-7.5-6.4.3-11.6 2.7-15.5 7.2-3.9 4.5-6 9.8-6.4 15.9h43.8z" fill="#091234"/></svg>