<?xml version="1.0" encoding="UTF-8"?>
<svg width="152px" height="24px" viewBox="0 0 152 24" version="1.1" xmlns="http://www.w3.org/2000/svg" xmlns:xlink="http://www.w3.org/1999/xlink">
    <!-- Generator: Sketch 50.2 (55047) - http://www.bohemiancoding.com/sketch -->
    <title>Group</title>
    <desc>Created with Sketch.</desc>
    <defs></defs>
    <g id="Symbols" stroke="none" stroke-width="1" fill="none" fill-rule="evenodd">
        <g id="Header" transform="translate(-140.000000, -16.000000)">
            <g id="Group" transform="translate(140.000000, 16.000000)">
                <path d="M81.723188,11.9483368 L81.723188,11.9480561 C81.723188,4.99830175 77.350698,2.25752982 73.3695313,2.25752982 C69.3885049,2.25752982 65.016015,4.99830175 65.016015,11.9480561 L65.016015,11.9483368 C65.016015,18.8980912 69.3885049,21.6392842 73.3695313,21.6392842 C77.350698,21.6392842 81.723188,18.8980912 81.723188,11.9483368 Z M73.3695313,0.00602105263 C80.3200106,-0.0265403509 84.1053753,5.46033684 84.1053753,11.9480561 L84.1053753,11.9483368 C84.1053753,18.4357754 80.3200106,23.923214 73.3695313,23.8906526 C66.4191924,23.923214 62.633968,18.4357754 62.633968,11.9483368 L62.633968,11.9480561 C62.633968,5.46033684 66.4191924,-0.0265403509 73.3695313,0.00602105263 Z" id="Fill-1" fill="#000000"></path>
                <path d="M47.5583238,21.0908772 L41.0320119,21.0908772 L41.0320119,2.68807018 L47.5583238,2.68807018 C51.4088155,2.68807018 56.2381768,4.90673684 56.2381768,11.8893333 C56.2381768,18.8720702 51.4088155,21.0908772 47.5583238,21.0908772 M47.5583238,0.534385965 L38.6826688,0.534385965 L38.6826688,23.2444211 L47.5583238,23.2444211 C54.3782684,23.2444211 58.5876602,18.3767719 58.5876602,11.8893333 C58.5876602,5.40175439 54.3782684,0.534385965 47.5583238,0.534385965" id="Fill-3" fill="#000000"></path>
                <polygon id="Fill-5" fill="#000000" points="100.841196 21.0908772 100.841196 23.2444211 88.9106088 23.2444211 88.9106088 0.534385965 91.2599519 0.534385965 91.2599519 21.0908772"></polygon>
                <polygon id="Fill-7" fill="#000000" points="123.218121 23.2442105 125.567464 23.2442105 125.567464 0.534175439 123.218121 0.534175439"></polygon>
                <polygon id="Fill-9" fill="#000000" points="151.370727 0.534414035 151.370727 23.2444491 149.086651 23.2444491 148.763543 23.2444491 134.495122 3.58115088 134.495122 23.2444491 132.341441 23.2444491 132.341441 0.534273684 134.625516 0.534273684 134.941466 0.534273684 149.217046 20.1425544 149.217046 0.534414035"></polygon>
                <polygon id="Fill-10" fill="#000000" points="107.541736 2.68805614 107.541736 9.93156491 117.363838 9.93156491 117.363838 12.0852491 107.541736 12.0852491 107.541736 23.244407 105.192393 23.244407 105.192393 0.53437193 118.310144 0.53437193 118.310144 2.68805614"></polygon>
                <path d="M10.5560431,23.8906667 L2.98306785,23.8874386 C1.98875868,23.8874386 0,23.141193 0,20.901193 C0,18.9142456 1.40542316,18.4596491 2.73406948,16.6717193 C3.87631792,15.1358596 4.35269924,13.6829474 4.35269924,11.9449825 C4.35269924,10.2078596 3.87631792,8.75494737 2.73406948,7.21824561 C1.40542316,5.43101754 0,4.9765614 0,2.98947368 C0,0.749333333 1.98875868,0.00336842105 2.98306785,0.00336842105 L10.5560431,0 C16.8698501,0 22.3931505,3.49501754 22.3931505,11.9449825 C22.3931505,20.3956491 16.8698501,23.8906667 10.5560431,23.8906667 Z" id="Fill-11" fill="#F82F38"></path>
            </g>
        </g>
    </g>
</svg>