<svg xmlns="http://www.w3.org/2000/svg" xmlns:xlink="http://www.w3.org/1999/xlink" version="1.1" width="932.954" height="397.479" enable-background="new 0 0 932.954 397.479" xml:space="preserve"><rect id="backgroundrect" width="100%" height="100%" x="0" y="0" fill="none" stroke="none"/>

<g class="currentLayer" style=""><title>Layer 1</title><g id="svg_1" class="selected" transform="">
	<defs>
		<rect id="SVGID_1_" x="-12.11400032043457" y="-44.60300064086914" width="960" height="496.5320129394531"/>
	</defs>
	<clipPath id="SVGID_2_">
		<use xlink:href="#SVGID_1_" overflow="visible" id="svg_2"/>
	</clipPath>
	<path clip-path="url(#SVGID_2_)" fill="#FFFFFF" d="M154.177,105.53c-6.554,0.797-12.949,2.018-19.164,3.611   c0.442,0.015,1.761-0.247,2.648-0.355C202.9,100.863,262.411,145.731,270.58,209c8.171,63.269-38.095,120.982-103.333,128.904   c-65.241,7.926-124.751-36.941-132.921-100.213c-1.968-15.245-0.768-30.163,3.087-44.144c-8.582,21.153-11.978,44.632-8.854,68.776   c9.958,76.936,82.343,131.479,161.678,121.821c79.334-9.654,135.575-79.854,125.617-156.792   C305.896,150.414,233.511,95.873,154.177,105.53" id="svg_3"/>
	<path clip-path="url(#SVGID_2_)" fill="#00B37F" d="M31.04,212.918c-0.854,9.014-1.342,17.984-0.773,27   c1.46,23.159,8.597,44.536,21.989,63.73c22.675,32.499,54.119,51.78,94.302,57.116c28.556,3.795,55.736-1.045,80.815-14.725   c7.496-4.089,12.592-11.219,12.983-20.382c0.145-3.368-1.348-6.146-3.819-8.178c-3.307-2.72-6.765-5.12-11.128-6.498   c-17.009-5.372-34.544-7.026-52.229-7.23c-35.505-0.412-62.362-16-82.757-43.354c-1.599-2.145-3.099-4.356-5.006-7.047   c8.897,0.797,17.08,2.055,25.234,3.428c40.701,6.87,79.855,18.838,118.148,33.672c1.74,0.674,2.975,2.473,5.159,2.151   c0.645-0.097,1.441,0.214,1.534-0.792c0.05-0.564-0.153-0.88-0.742-1.257c-4.022-2.557-7.867-5.386-11.962-7.821   c-7.092-4.221-14.562-7.758-22.235-10.878c-18.661-7.597-38.295-12.143-57.742-17.267c-17.345-4.57-34.549-9.482-50.653-17.468   c-30.038-14.897-47.475-38.966-54.843-70.428c-0.735-3.143-1.316-6.318-1.956-9.479c-0.041-0.202,0.035-0.424,0.123-1.311   c73.149,27.404,145.072,56.638,208.958,102.125c0.131-1.839-0.986-2.272-1.653-2.939c-17.269-17.305-37.148-31.383-58.14-44.055   c-25.443-15.361-52.189-28.255-79.529-40.139c-19.717-8.57-39.076-17.971-55.566-31.973   c-19.312-16.398-30.865-37.177-37.159-61.012C6.47,55.476,5.523,32.656,6.634,9.673c0.039-0.809-0.178-1.754,0.738-2.657   c5.441,8.45,11.212,16.581,17.731,24.171c5.491,6.393,10.717,13.084,16.849,18.856c11.499,10.823,23.344,21.305,35.636,31.318   c13.791,11.237,28.438,21.375,42.824,31.824c7.707,5.599,15.853,10.726,23.771,16.099c27.908,18.936,56.409,37.101,82.673,58.222   c16.694,13.426,32.679,27.567,44.436,45.545c8.663,13.248,13.994,27.46,13.162,43.43c-0.239,4.572-0.943,9.063-2.184,13.477   c-0.168,0.6-0.755,1.203,0.227,1.626c0.625,0.269,0.903-0.324,1.007-0.606c3.066-8.324,7.154-16.261,9.439-24.892   c8.437-31.864,5.654-62.638-9.53-92.113c-14.832-28.791-37.837-49.282-68.314-61.929c-1.132-0.47-8.465-3.449-9.612-3.887   c21.013,4.449,47.79,16.904,65.017,31.048c17.291,14.195,30.75,31.259,40.035,51.331c27.262,58.925,11.945,130.037-43.189,172.636   c-53.828,41.589-128.798,42.205-183.174,1.841C28.686,323.826,16.898,258.115,31.04,212.918" id="svg_4"/>
	<path clip-path="url(#SVGID_2_)" fill="#00B37F" d="M577.609,113.699c2.715-2.58,5.927-3.873,9.645-3.873h1.507   c3.815,0,7.055,1.268,9.717,3.8c2.662,2.534,3.994,5.698,3.994,9.498c0,3.604-1.307,6.721-3.917,9.351   c-2.613,2.63-5.877,3.944-9.794,3.944h-1.507c-3.518,0-6.38-0.972-8.588-2.922c-2.212-1.948-3.667-4.09-4.37-6.428   c-0.3-0.68-0.503-1.363-0.603-2.045c-0.102-0.681-0.151-1.315-0.151-1.899C573.542,119.422,574.897,116.281,577.609,113.699" id="svg_5"/>
	<polygon clip-path="url(#SVGID_2_)" fill="#FFFFFF" points="370.594,119.407 372.101,119.407 401.632,119.407 401.632,160.32    431.917,119.407 433.424,119.407 468.077,119.407 427.999,168.943 469.132,221.69 467.625,221.69 430.712,221.69 401.632,179.9    401.632,221.69 400.127,221.69 370.594,221.69  " id="svg_6"/>
	<path clip-path="url(#SVGID_2_)" fill="#FFFFFF" d="M530.302,151.116h1.508h25.31v70.574h-1.505h-25.312v-6.575   c-2.612,2.728-5.777,4.918-9.493,6.575c-3.718,1.656-7.986,2.485-12.805,2.485l-1.507,0.145   c-10.951-0.096-19.338-3.944-25.164-11.543c-5.826-7.598-8.737-16.412-8.737-26.447c0-1.168,0.049-2.384,0.15-3.652   c0.099-1.266,0.249-2.533,0.451-3.8c1.104-7.598,4.294-14.562,9.567-20.895c5.275-6.331,13.183-9.497,23.732-9.497h1.507   c4.117,0,8.006,0.635,11.675,1.899c3.668,1.267,7.208,3.798,10.623,7.597V151.116z M527.137,198.53   c2.812-2.97,4.219-7.037,4.219-12.201c0-5.063-1.407-9.108-4.219-12.127c-2.811-3.018-6.43-4.578-10.847-4.675   c-4.823,0.196-8.438,1.851-10.848,4.967c-2.413,3.119-3.769,6.527-4.069,10.228v0.804v0.804c0,4.288,1.205,8.134,3.616,11.543   c2.41,3.411,6.177,5.212,11.301,5.407C520.708,203.084,524.327,201.503,527.137,198.53" id="svg_7"/>
	<polygon clip-path="url(#SVGID_2_)" fill="#FFFFFF" points="602.019,151.116 602.019,221.69 600.512,221.69 574.144,221.69    574.144,151.116 575.651,151.116  " id="svg_8"/>
	<path clip-path="url(#SVGID_2_)" fill="#FFFFFF" d="M650.307,154.185c1.658-1.169,3.34-2.094,5.05-2.778   c1.604-0.68,3.236-1.168,4.895-1.46s3.188-0.439,4.597-0.439h1.507c0.398,0,0.878,0.025,1.433,0.073   c0.548,0.051,1.127,0.074,1.729,0.074c0.199,0.097,0.399,0.146,0.602,0.146h0.604c0.502,0.098,0.979,0.171,1.431,0.218   c0.452,0.05,0.779,0.072,0.98,0.072v22.502h-1.507c-0.301-0.194-0.604-0.34-0.904-0.438c-0.302-0.097-0.656-0.195-1.055-0.293   c-0.603-0.193-1.207-0.315-1.807-0.365c-0.605-0.048-1.309-0.072-2.109-0.072c-4.923,0.099-8.689,1.194-11.303,3.286   c-2.612,2.097-4.47,4.41-5.574,6.942c-1.106,2.242-1.731,4.336-1.882,6.284c-0.151,1.949-0.226,3.166-0.226,3.651v30.101h-1.507   h-26.37v-70.574h1.509h25.312v7.305C647.118,156.766,648.649,155.353,650.307,154.185" id="svg_9"/>
	<path clip-path="url(#SVGID_2_)" fill="#FFFFFF" d="M689.63,213.289c-7.285-7.254-10.924-16.243-10.924-26.959   c0-10.423,3.59-19.336,10.772-26.74c7.181-7.402,18.104-11.104,32.771-11.104h1.507c14.664,0,25.588,3.702,32.771,11.104   c7.181,7.403,10.772,16.316,10.772,26.74c0,10.426-3.592,19.337-10.772,26.74c-7.183,7.403-18.106,11.105-32.771,11.105   l-1.507,0.145C707.786,224.223,696.91,220.545,689.63,213.289 M732.343,202.695c2.112-2.046,3.616-4.286,4.521-6.722   c0.804-2.142,1.281-4.114,1.432-5.918c0.152-1.8,0.227-3.043,0.227-3.726c0-5.454-1.308-10.009-3.918-13.661   c-2.612-3.654-6.478-5.576-11.601-5.773c-5.225,0.198-9.114,2.12-11.677,5.773c-2.562,3.652-3.843,8.207-3.843,13.661   c0,0.683,0.077,1.925,0.226,3.726c0.15,1.805,0.627,3.776,1.431,5.918c0.905,2.338,2.412,4.529,4.523,6.575   c2.106,2.046,5.22,3.168,9.34,3.361C727.121,205.812,730.236,204.741,732.343,202.695" id="svg_10"/>
	<path clip-path="url(#SVGID_2_)" fill="#FFFFFF" d="M782.367,199.627h1.504c0.605,0.39,1.284,0.779,2.035,1.169   c0.753,0.389,1.584,0.828,2.485,1.314c2.012,0.974,4.297,1.877,6.856,2.703c2.561,0.829,5.248,1.293,8.062,1.389   c1.807-0.096,3.213-0.413,4.218-0.95c1.002-0.534,1.709-1.097,2.109-1.681c0.303-0.487,0.504-0.924,0.604-1.313   c0.099-0.389,0.15-0.733,0.15-1.023c0-1.559-0.552-2.727-1.655-3.508c-1.108-0.778-2.315-1.362-3.619-1.753   c-0.503-0.096-1.029-0.194-1.581-0.293c-0.554-0.096-1.081-0.192-1.581-0.291c-7.233-1.07-13.135-3.117-17.703-6.138   c-4.574-3.018-6.857-8.328-6.857-15.927c0-0.972,0.051-1.995,0.148-3.068c0.103-1.071,0.303-2.141,0.605-3.214   c1.104-4.676,3.843-8.936,8.212-12.785c4.368-3.848,11.323-5.771,20.866-5.771h1.51c4.114,0,8.608,0.438,13.481,1.314   c4.873,0.876,9.871,2.484,14.994,4.822l-8.287,16.365h-1.51c-0.3-0.194-0.576-0.364-0.824-0.511   c-0.255-0.146-0.48-0.315-0.68-0.512c-2.611-1.558-5.175-2.703-7.685-3.433c-2.512-0.733-4.771-1.144-6.78-1.243   c-2.109,0.099-3.667,0.488-4.671,1.168c-1.006,0.683-1.658,1.413-1.958,2.192c-0.303,0.488-0.479,0.975-0.528,1.46   c-0.052,0.489-0.074,0.877-0.074,1.169v0.584v0.585c0.198,1.073,0.979,2.095,2.335,3.068c1.355,0.975,4.24,1.705,8.663,2.192   c1.204,0.098,2.712,0.291,4.521,0.584c1.807,0.292,3.667,0.782,5.576,1.461c3.212,1.267,6.174,3.36,8.889,6.283   c2.711,2.922,4.066,7.307,4.066,13.15c0,6.333-2.31,12.127-6.93,17.387c-4.621,5.261-13.058,7.892-25.313,7.892l-1.507,0.146   c-6.127-0.099-11.551-0.709-16.271-1.827c-4.724-1.118-9.141-2.944-13.261-5.479L782.367,199.627z" id="svg_11"/>
	<polygon clip-path="url(#SVGID_2_)" fill="#FFFFFF" points="370.594,265.525 372.101,265.525 435.383,265.525 435.383,290.074    401.632,290.074 401.632,305.415 432.218,305.415 432.218,328.941 401.632,328.941 401.632,367.81 400.127,367.81 370.594,367.81     " id="svg_12"/>
	<path clip-path="url(#SVGID_2_)" fill="#FFFFFF" d="M451.654,259.815c2.712-2.58,5.925-3.872,9.642-3.872h1.508   c3.815,0,7.054,1.269,9.718,3.8c2.659,2.535,3.991,5.697,3.991,9.497c0,3.606-1.307,6.722-3.918,9.352   c-2.61,2.632-5.875,3.947-9.792,3.947h-1.508c-3.518,0-6.379-0.974-8.588-2.923c-2.21-1.947-3.668-4.092-4.37-6.431   c-0.3-0.679-0.502-1.363-0.602-2.045c-0.1-0.681-0.151-1.315-0.151-1.9C447.585,265.541,448.941,262.397,451.654,259.815" id="svg_13"/>
	<polygon clip-path="url(#SVGID_2_)" fill="#FFFFFF" points="476.064,297.232 476.064,367.81 474.555,367.81 448.188,367.81    448.188,297.232 449.695,297.232  " id="svg_14"/>
	<path clip-path="url(#SVGID_2_)" fill="#FFFFFF" d="M530.377,297.014c3.765-1.607,7.956-2.411,12.579-2.411h1.507   c8.034,0,13.863,2,17.478,5.991c3.614,3.994,5.977,8.379,7.082,13.15c0.603,2.337,0.979,4.628,1.13,6.867   c0.148,2.241,0.226,4.238,0.226,5.991v41.207h-1.507h-26.366v-38.868c0-0.681-0.027-1.559-0.074-2.633   c-0.054-1.069-0.179-2.139-0.379-3.214c-0.402-1.752-1.205-3.382-2.41-4.894c-1.207-1.51-3.115-2.358-5.726-2.559   c-3.819,0.2-6.957,1.852-9.416,4.969c-2.462,3.121-3.693,7.258-3.693,12.421v34.777h-1.505h-26.366v-70.577h1.506h26.365v6.431   C523.419,300.839,526.609,298.622,530.377,297.014" id="svg_15"/>
	<path clip-path="url(#SVGID_2_)" fill="#FFFFFF" d="M639.985,297.232h1.509h25.312v70.577h-1.507h-25.313v-6.576   c-2.611,2.728-5.776,4.918-9.49,6.576c-3.717,1.652-7.985,2.481-12.808,2.481l-1.507,0.148   c-10.95-0.098-19.336-3.946-25.161-11.542c-5.828-7.6-8.74-16.415-8.74-26.45c0-1.17,0.05-2.385,0.151-3.652   c0.1-1.265,0.248-2.531,0.454-3.801c1.103-7.597,4.293-14.56,9.565-20.892c5.273-6.332,13.184-9.5,23.73-9.5h1.507   c4.117,0,8.01,0.634,11.677,1.898c3.667,1.27,7.207,3.801,10.621,7.602V297.232z M636.823,344.647   c2.81-2.969,4.219-7.035,4.219-12.2c0-5.064-1.409-9.107-4.219-12.125c-2.813-3.02-6.43-4.58-10.849-4.68   c-4.823,0.2-8.438,1.854-10.847,4.969c-2.412,3.121-3.768,6.526-4.07,10.229v0.803v0.804c0,4.288,1.207,8.135,3.616,11.542   c2.411,3.41,6.179,5.215,11.301,5.409C630.393,349.204,634.009,347.621,636.823,344.647" id="svg_16"/>
	<path clip-path="url(#SVGID_2_)" fill="#FFFFFF" d="M721.122,297.014c3.766-1.607,7.957-2.411,12.58-2.411h1.507   c8.036,0,13.86,2,17.478,5.991c3.616,3.994,5.974,8.379,7.081,13.15c0.603,2.337,0.979,4.628,1.13,6.867   c0.15,2.241,0.226,4.238,0.226,5.991v41.207h-1.507h-26.368v-38.868c0-0.681-0.024-1.559-0.074-2.633   c-0.052-1.069-0.176-2.139-0.376-3.214c-0.402-1.752-1.205-3.382-2.41-4.894c-1.206-1.51-3.115-2.358-5.726-2.559   c-3.819,0.2-6.957,1.852-9.417,4.969c-2.463,3.121-3.692,7.258-3.692,12.421v34.777h-1.506h-26.365v-70.577h1.504h26.367v6.431   C714.164,300.839,717.354,298.622,721.122,297.014" id="svg_17"/>
	<path clip-path="url(#SVGID_2_)" fill="#FFFFFF" d="M834.65,365.034c-0.303,0.098-1.032,0.411-2.186,0.949   c-1.156,0.535-2.69,1.095-4.597,1.678c-2.109,0.585-4.546,1.171-7.308,1.753c-2.764,0.586-5.75,0.877-8.965,0.877l-1.507,0.146   c-12.354-0.095-21.62-3.966-27.796-11.615c-6.181-7.647-9.269-16.438-9.269-26.374c0-10.323,3.188-19.215,9.568-26.666   c6.378-7.452,15.541-11.179,27.496-11.179h1.507c1.81,0,3.542,0.1,5.197,0.291c1.658,0.197,3.339,0.439,5.049,0.731   c2.009,0.49,4.068,1.097,6.178,1.829c2.109,0.728,4.317,1.63,6.631,2.701v22.21h-1.507c-2.413-2.239-5.05-3.993-7.912-5.261   c-2.861-1.264-5.751-1.946-8.664-2.046c-5.023,0.198-8.74,2.024-11.148,5.479c-2.41,3.462-3.616,7.479-3.616,12.059   c0,4.772,1.355,8.764,4.069,11.978c2.712,3.218,6.629,4.923,11.752,5.116c2.008-0.097,4.315-0.606,6.931-1.535   c2.609-0.924,5.473-2.752,8.589-5.477h1.507V365.034z" id="svg_18"/>
	<path clip-path="url(#SVGID_2_)" fill="#FFFFFF" d="M916.385,359.844c-3.566,3.266-7.259,5.678-11.074,7.234   c-3.918,1.46-7.685,2.358-11.301,2.703c-3.616,0.339-6.43,0.51-8.438,0.51l-1.506,0.148c-10.95-0.098-20.416-3.311-28.4-9.644   c-7.986-6.334-11.979-15.782-11.979-28.349c0-10.907,3.49-19.942,10.473-27.104c6.978-7.161,16.848-10.74,29.606-10.74h1.507   c11.851,0,20.64,2.728,26.366,8.183c5.726,5.456,9.591,11.449,11.601,17.974c0.802,2.729,1.356,5.406,1.658,8.036   c0.299,2.63,0.453,5.066,0.453,7.305v1.097v0.949h-55.447v0.731c0,0.584,0.022,1.168,0.074,1.752   c0.051,0.584,0.125,1.171,0.228,1.753c0.602,3.122,2.057,5.993,4.369,8.624c2.308,2.628,5.725,3.996,10.244,4.09   c3.413-0.195,6.275-1.022,8.589-2.483c2.31-1.462,3.815-3.556,4.521-6.284h1.507h25.312   C922.737,352.079,919.95,356.581,916.385,359.844 M898.528,324.266c-0.2-3.507-1.43-6.721-3.688-9.644   c-2.262-2.923-5.704-4.479-10.321-4.678c-4.12,0.199-7.434,1.682-9.944,4.456c-2.514,2.777-3.867,6.065-4.068,9.865H898.528z" id="svg_19"/>
</g></g></svg>