<svg xmlns="http://www.w3.org/2000/svg" width="1436" height="625"><rect id="backgroundrect" width="100%" height="100%" x="0" y="0" fill="none" stroke="none"/><g class="currentLayer" style=""><title>Layer 1</title><path fill="#091234" d="M231.1227653503418,158.7999710083008 c-10.2,1.3 -20.2,3.3 -29.9,5.8 c0.7000000000000001,0 2.8,-0.4 4.1,-0.6000000000000001 c101.9,-12.8 194.9,59.5 207.7,161.5 c12.8,101.9 -59.5,194.9 -161.5,207.7 c-101.9,12.8 -194.9,-59.5 -207.6,-161.5 c-3.1,-24.6 -1.2,-48.6 4.8,-71.1 c-13.4,34.1 -18.7,71.9 -13.8,110.8 c15.6,124 128.7,211.8 252.6,196.3 c124,-15.6 211.8,-128.7 196.3,-252.6 S355.1227653503418,143.1999710083008 231.1227653503418,158.7999710083008 z" id="svg_1" class=""/><path fill="#00B381" d="M38.7227653503418,331.79997100830076 c-1.3,14.5 -2.1,29 -1.2,43.5 c2.3,37.3 13.4,71.8 34.4,102.7 c35.4,52.4 84.6,83.4 147.3,92 c44.6,6.1 87.1,-1.7000000000000002 126.3,-23.7 c11.7,-6.6 19.7,-18.1 20.3,-32.8 c0.2,-5.4 -2.1,-9.9 -6,-13.2 c-5.2,-4.4 -10.6,-8.3 -17.4,-10.5 c-26.6,-8.7 -54,-11.3 -81.6,-11.6 c-55.5,-0.7000000000000001 -97.4,-25.8 -129.3,-69.9 c-2.5,-3.5 -4.8,-7 -7.8,-11.4 c13.9,1.3 26.7,3.3 39.4,5.5 c63.6,11.1 124.8,30.3 184.6,54.2 c2.7,1.1 4.6,4 8.1,3.5 c1,-0.2 2.3,0.30000000000000004 2.4,-1.3 c0.1,-0.9 -0.2,-1.4 -1.2,-2 c-6.3,-4.1 -12.3,-8.7 -18.7,-12.6 c-11.1,-6.8 -22.8,-12.5 -34.7,-17.5 c-29.2,-12.2 -59.8,-19.6 -90.2,-27.8 c-27.1,-7.4 -54,-15.3 -79.1,-28.1 c-46.9,-24 -74.2,-62.8 -85.7,-113.5 c-1.1,-5.1 -2.1,-10.2 -3.1,-15.3 c-0.1,-0.30000000000000004 0.1,-0.7000000000000001 0.2,-2.1 c114.3,44.2 226.7,91.3 326.5,164.5 c0.2,-3 -1.5,-3.7 -2.6,-4.7 c-27,-27.9 -58,-50.6 -90.8,-71 c-39.8,-24.7 -81.5,-45.5 -124.3,-64.7 c-30.8,-13.8 -61.1,-29 -86.8,-51.5 c-30.2,-26.4 -48.2,-59.9 -58.1,-98.3 c-9.3,-36.1 -10.7,-72.9 -9,-109.9 c0.1,-1.3 -0.30000000000000004,-2.8 1.2,-4.3 C10.322765350341797,13.599971008300784 19.322765350341797,26.69997100830078 29.5227653503418,38.89997100830078 c8.6,10.3 16.7,21.1 26.3,30.4 c18,17.4 36.5,34.3 55.7,50.5 c21.5,18.1 44.4,34.4 66.9,51.3 c12,9 24.8,17.3 37.1,25.9 c43.6,30.5 88.1,59.8 129.2,93.8 c26.1,21.6 51.1,44.4 69.4,73.4 c13.5,21.3 21.9,44.2 20.6,70 c-0.4,7.4 -1.5,14.6 -3.4,21.7 c-0.30000000000000004,1 -1.2,1.9 0.4,2.6 c1,0.4 1.4,-0.5 1.6,-1 c4.8,-13.4 11.2,-26.2 14.7,-40.1 c13.2,-51.3 8.8,-100.9 -14.9,-148.4 c-23.2,-46.4 -59.1,-79.4 -106.7,-99.8 c-1.8,-0.8 -13.2,-5.6 -15,-6.3 c32.8,7.2 74.7,27.2 101.6,50 c27,22.9 48,50.4 62.6,82.7 c42.6,94.9 18.7,209.5 -67.5,278.1 c-84.1,67 -201.2,68 -286.2,3 c-86.9,-66.2 -105.3,-172.1 -83.2,-244.9" id="svg_2" class=""/></g></svg>