<svg xmlns="http://www.w3.org/2000/svg" width="1436" height="625"><rect id="backgroundrect" width="100%" height="100%" x="0" y="0" fill="none" stroke="none"/><g class="currentLayer" style=""><title>Layer 1</title><path fill="#091234" d="M231.1227653503418,158.7999710083008 c-10.2,1.3 -20.2,3.3 -29.9,5.8 c0.7000000000000001,0 2.8,-0.4 4.1,-0.6000000000000001 c101.9,-12.8 194.9,59.5 207.7,161.5 c12.8,101.9 -59.5,194.9 -161.5,207.7 c-101.9,12.8 -194.9,-59.5 -207.6,-161.5 c-3.1,-24.6 -1.2,-48.6 4.8,-71.1 c-13.4,34.1 -18.7,71.9 -13.8,110.8 c15.6,124 128.7,211.8 252.6,196.3 c124,-15.6 211.8,-128.7 196.3,-252.6 S355.1227653503418,143.1999710083008 231.1227653503418,158.7999710083008 z" id="svg_1" class=""/><path fill="#00B381" d="M38.7227653503418,331.79997100830076 c-1.3,14.5 -2.1,29 -1.2,43.5 c2.3,37.3 13.4,71.8 34.4,102.7 c35.4,52.4 84.6,83.4 147.3,92 c44.6,6.1 87.1,-1.7000000000000002 126.3,-23.7 c11.7,-6.6 19.7,-18.1 20.3,-32.8 c0.2,-5.4 -2.1,-9.9 -6,-13.2 c-5.2,-4.4 -10.6,-8.3 -17.4,-10.5 c-26.6,-8.7 -54,-11.3 -81.6,-11.6 c-55.5,-0.7000000000000001 -97.4,-25.8 -129.3,-69.9 c-2.5,-3.5 -4.8,-7 -7.8,-11.4 c13.9,1.3 26.7,3.3 39.4,5.5 c63.6,11.1 124.8,30.3 184.6,54.2 c2.7,1.1 4.6,4 8.1,3.5 c1,-0.2 2.3,0.30000000000000004 2.4,-1.3 c0.1,-0.9 -0.2,-1.4 -1.2,-2 c-6.3,-4.1 -12.3,-8.7 -18.7,-12.6 c-11.1,-6.8 -22.8,-12.5 -34.7,-17.5 c-29.2,-12.2 -59.8,-19.6 -90.2,-27.8 c-27.1,-7.4 -54,-15.3 -79.1,-28.1 c-46.9,-24 -74.2,-62.8 -85.7,-113.5 c-1.1,-5.1 -2.1,-10.2 -3.1,-15.3 c-0.1,-0.30000000000000004 0.1,-0.7000000000000001 0.2,-2.1 c114.3,44.2 226.7,91.3 326.5,164.5 c0.2,-3 -1.5,-3.7 -2.6,-4.7 c-27,-27.9 -58,-50.6 -90.8,-71 c-39.8,-24.7 -81.5,-45.5 -124.3,-64.7 c-30.8,-13.8 -61.1,-29 -86.8,-51.5 c-30.2,-26.4 -48.2,-59.9 -58.1,-98.3 c-9.3,-36.1 -10.7,-72.9 -9,-109.9 c0.1,-1.3 -0.30000000000000004,-2.8 1.2,-4.3 C10.322765350341797,13.599971008300784 19.322765350341797,26.69997100830078 29.5227653503418,38.89997100830078 c8.6,10.3 16.7,21.1 26.3,30.4 c18,17.4 36.5,34.3 55.7,50.5 c21.5,18.1 44.4,34.4 66.9,51.3 c12,9 24.8,17.3 37.1,25.9 c43.6,30.5 88.1,59.8 129.2,93.8 c26.1,21.6 51.1,44.4 69.4,73.4 c13.5,21.3 21.9,44.2 20.6,70 c-0.4,7.4 -1.5,14.6 -3.4,21.7 c-0.30000000000000004,1 -1.2,1.9 0.4,2.6 c1,0.4 1.4,-0.5 1.6,-1 c4.8,-13.4 11.2,-26.2 14.7,-40.1 c13.2,-51.3 8.8,-100.9 -14.9,-148.4 c-23.2,-46.4 -59.1,-79.4 -106.7,-99.8 c-1.8,-0.8 -13.2,-5.6 -15,-6.3 c32.8,7.2 74.7,27.2 101.6,50 c27,22.9 48,50.4 62.6,82.7 c42.6,94.9 18.7,209.5 -67.5,278.1 c-84.1,67 -201.2,68 -286.2,3 c-86.9,-66.2 -105.3,-172.1 -83.2,-244.9 zm854,-159.8 c4.2,-4.2 9.3,-6.2 15.1,-6.2 h2.4 c6,0 11,2 15.2,6.1 c4.2,4.1 6.2,9.2 6.2,15.3 c0,5.8 -2,10.8 -6.1,15.1 c-4.1,4.2 -9.2,6.4 -15.3,6.4 h-2.4 c-5.5,0 -10,-1.6 -13.4,-4.7 c-3.5,-3.1 -5.7,-6.6 -6.8,-10.4 c-0.5,-1.1 -0.8,-2.2 -0.9,-3.3 c-0.2,-1.1 -0.2,-2.1 -0.2,-3.1 c-0.1,-6 2,-11.1 6.2,-15.2 z" id="svg_2" class=""/><path d="M569.3227653503418,181.09997100830077 h48.5 v65.9 l47.3,-65.9 h56.5 L659.0227653503418,260.8999710083008 l64.3,85 h-60.1 l-45.4,-67.3 V345.8999710083008 H569.3227653503418 V181.09997100830077 zm249.5,51.1 h41.9 V345.8999710083008 h-42 v-10.6 c-4.1,4.4 -9,7.9 -14.8,10.6 c-5.8,2.7 -12.5,4 -20,4 l-2.4,0.2 c-17.1,-0.2 -30.2,-6.4 -39.3,-18.6 c-9.1,-12.2 -13.7,-26.4 -13.7,-42.6 c0,-1.9 0.1,-3.8 0.2,-5.9 c0.2,-2 0.4,-4.1 0.7000000000000001,-6.1 c1.7000000000000002,-12.2 6.7,-23.5 14.9,-33.7 c8.2,-10.2 20.6,-15.3 37.1,-15.3 h2.4 c6.4,0 12.5,1 18.2,3.1 c5.7,2 11.3,6.1 16.6,12.2 v-11 zm-4.9,76.4 c4.4,-4.8 6.6,-11.3 6.6,-19.7 c0,-8.2 -2.2,-14.7 -6.6,-19.5 c-4.4,-4.9 -10,-7.4 -17,-7.5 c-7.5,0.30000000000000004 -13.2,3 -17,8 c-3.8,5 -5.9,10.5 -6.4,16.5 v2.6 c0,6.9 1.9,13.1 5.7,18.6 c3.8,5.5 9.7,8.4 17.7,8.7 c6.9,-0.30000000000000004 12.6,-2.9 17,-7.7 zm117,-76.4 V345.8999710083008 H887.3227653503418 V232.1999710083008 h2.4 zm75.4,5 c2.6,-1.9 5.2,-3.4 7.9,-4.5 c2.5,-1.1 5.1,-1.9 7.7,-2.4 c2.6,-0.5 5,-0.7000000000000001 7.2,-0.7000000000000001 h2.4 c0.6000000000000001,0 1.4,0 2.2,0.1 c0.9,0.1 1.8,0.1 2.7,0.1 c0.30000000000000004,0.2 0.6000000000000001,0.2 0.9,0.2 h0.9 c0.8,0.2 1.5,0.30000000000000004 2.2,0.4 c0.7000000000000001,0.1 1.2,0.1 1.5,0.1 v36.3 h-2.4 c-0.5,-0.30000000000000004 -0.9,-0.5 -1.4,-0.7000000000000001 c-0.5,-0.2 -1,-0.30000000000000004 -1.6,-0.5 c-0.9,-0.30000000000000004 -1.9,-0.5 -2.8,-0.6000000000000001 c-0.9,-0.1 -2,-0.1 -3.3,-0.1 c-7.7,0.2 -13.6,1.9 -17.7,5.3 s-7,7.1 -8.7,11.2 c-1.7000000000000002,3.6 -2.7,7 -2.9,10.1 c-0.2,3.1 -0.4,5.1 -0.4,5.9 V345.8999710083008 h-43.6 V232.1999710083008 h42 v11.8 c2.2,-2.7 4.6,-4.9 7.2,-6.8 zm61.5,95.2 c-11.4,-11.7 -17.1,-26.2 -17.1,-43.4 c0,-16.8 5.6,-31.2 16.8,-43.1 c11.2,-11.9 28.3,-17.9 51.2,-17.9 h2.4 c22.9,0 40,6 51.2,17.9 c11.2,11.9 16.8,26.3 16.8,43.1 s-5.6,31.2 -16.8,43.1 c-11.2,11.9 -28.3,17.9 -51.2,17.9 l-2.4,0.2 c-22.6,-0.2 -39.5,-6.1 -50.9,-17.8 zm66.7,-17.1 c3.3,-3.3 5.6,-6.9 7.1,-10.8 c1.3,-3.5 2,-6.6 2.2,-9.5 c0.2,-2.9 0.4,-4.9 0.4,-6 c0,-8.8 -2,-16.1 -6.1,-22 c-4.1,-5.9 -10.1,-9 -18.1,-9.3 c-8.2,0.30000000000000004 -14.2,3.4 -18.2,9.3 s-6,13.2 -6,22 c0,1.1 0.1,3.1 0.4,6 c0.2,2.9 1,6.1 2.2,9.5 c1.4,3.8 3.8,7.3 7.1,10.6 s8.2,5.1 14.6,5.4 c6.3,-0.1 11.1,-1.9 14.4,-5.2 zm78.2,-4.9 h2.4 c0.9,0.6000000000000001 2,1.3 3.2,1.9 c1.2,0.6000000000000001 2.5,1.3 3.9,2.1 c3.1,1.6 6.7,3 10.7,4.4 c4,1.3 8.2,2.1 12.6,2.2 c2.8,-0.2 5,-0.7000000000000001 6.6,-1.5 c1.6,-0.9 2.7,-1.8 3.3,-2.7 c0.5,-0.8 0.8,-1.5 0.9,-2.1 c0.2,-0.6000000000000001 0.2,-1.2 0.2,-1.6 c0,-2.5 -0.9,-4.4 -2.6,-5.7 c-1.7000000000000002,-1.3 -3.6,-2.2 -5.7,-2.8 c-0.8,-0.2 -1.6,-0.30000000000000004 -2.5,-0.5 c-0.9,-0.2 -1.7000000000000002,-0.30000000000000004 -2.5,-0.5 c-11.3,-1.7000000000000002 -20.5,-5 -27.7,-9.9 c-7.1,-4.9 -10.7,-13.4 -10.7,-25.7 c0,-1.6 0.1,-3.2 0.2,-4.9 c0.2,-1.7000000000000002 0.5,-3.4 0.9,-5.2 c1.7000000000000002,-7.5 6,-14.4 12.8,-20.6 c6.8,-6.2 17.7,-9.3 32.6,-9.3 h2.4 c6.4,0 13.5,0.7000000000000001 21.1,2.1 c7.6,1.4 15.4,4 23.4,7.8 l-12.9,26.4 h-2.4 c-0.5,-0.30000000000000004 -0.9,-0.6000000000000001 -1.3,-0.8 c-0.4,-0.2 -0.7000000000000001,-0.5 -1.1,-0.8 c-4.1,-2.5 -8.1,-4.4 -12,-5.5 c-3.9,-1.2 -7.5,-1.8 -10.6,-2 c-3.3,0.2 -5.7,0.8 -7.3,1.9 c-1.6,1.1 -2.6,2.3 -3.1,3.5 c-0.5,0.8 -0.7000000000000001,1.6 -0.8,2.4 c-0.1,0.8 -0.1,1.4 -0.1,1.9 v1.8 c0.30000000000000004,1.7000000000000002 1.5,3.4 3.6,4.9 c2.1,1.6 6.6,2.7 13.5,3.5 c1.9,0.2 4.2,0.5 7.1,0.9 c2.8,0.5 5.7,1.3 8.7,2.4 c5,2 9.7,5.4 13.9,10.1 c4.2,4.7 6.4,11.8 6.4,21.2 c0,10.2 -3.6,19.5 -10.8,28 c-7.2,8.5 -20.4,12.7 -39.6,12.7 l-2.4,0.2 c-9.6,-0.2 -18,-1.1 -25.4,-2.9 c-7.4,-1.8 -14.3,-4.7 -20.7,-8.8 l11.8,-28.5 zM569.3227653503418,416.59997100830077 h101.3 v39.6 h-52.7 V480.8999710083008 h47.8 v37.9 h-47.8 v62.6 H569.3227653503418 V416.59997100830077 zm126.6,-9.2 c4.2,-4.2 9.3,-6.2 15.1,-6.2 h2.4 c6,0 11,2 15.2,6.1 c4.2,4.1 6.2,9.2 6.2,15.3 c0,5.8 -2,10.8 -6.1,15.1 c-4.1,4.2 -9.2,6.4 -15.3,6.4 h-2.4 c-5.5,0 -10,-1.6 -13.4,-4.7 c-3.5,-3.1 -5.7,-6.6 -6.8,-10.4 c-0.5,-1.1 -0.8,-2.2 -0.9,-3.3 c-0.2,-1.1 -0.2,-2.1 -0.2,-3.1 c-0.1,-6 2,-11.1 6.2,-15.2 zm38.2,60.3 v113.7 h-43.6 V467.69997100830074 h2.4 zm84.8,-0.4 c5.9,-2.6 12.4,-3.9 19.7,-3.9 h2.4 c12.6,0 21.7,3.2 27.3,9.7 c5.6,6.4 9.3,13.5 11.1,21.2 c0.9,3.8 1.5,7.5 1.8,11.1 c0.2,3.6 0.4,6.8 0.4,9.7 v66.4 h-43.6 V518.8999710083008 c0,-1.1 0,-2.5 -0.1,-4.2 c-0.1,-1.7000000000000002 -0.30000000000000004,-3.4 -0.6000000000000001,-5.2 c-0.6000000000000001,-2.8 -1.9,-5.5 -3.8,-7.9 c-1.9,-2.4 -4.9,-3.8 -8.9,-4.1 c-6,0.30000000000000004 -10.9,3 -14.7,8 c-3.8,5 -5.8,11.7 -5.8,20 v56 h-43.6 V467.69997100830074 h43.6 v10.4 c4,-4.6 9,-8.2 14.8,-10.8 zm171.3,0.4 h41.9 v113.7 h-42 v-10.6 c-4.1,4.4 -9,7.9 -14.8,10.6 c-5.8,2.7 -12.5,4 -20,4 l-2.4,0.2 c-17.1,-0.2 -30.2,-6.4 -39.3,-18.6 c-9.1,-12.2 -13.7,-26.4 -13.7,-42.6 c0,-1.9 0.1,-3.8 0.2,-5.9 c0.2,-2 0.4,-4.1 0.7000000000000001,-6.1 c1.7000000000000002,-12.2 6.7,-23.5 14.9,-33.7 c8.2,-10.2 20.6,-15.3 37.1,-15.3 h2.4 c6.4,0 12.5,1 18.2,3.1 c5.7,2 11.3,6.1 16.6,12.2 v-11 zm-4.9,76.3 c4.4,-4.8 6.6,-11.3 6.6,-19.7 c0,-8.2 -2.2,-14.7 -6.6,-19.5 c-4.4,-4.9 -10,-7.4 -17,-7.5 c-7.5,0.30000000000000004 -13.2,3 -17,8 c-3.8,5 -5.9,10.5 -6.4,16.5 v2.6 c0,6.9 1.9,13.1 5.7,18.6 c3.8,5.5 9.7,8.4 17.7,8.7 c6.9,-0.30000000000000004 12.6,-2.9 17,-7.7 zm131.7,-76.7 c5.9,-2.6 12.4,-3.9 19.7,-3.9 h2.4 c12.6,0 21.7,3.2 27.3,9.7 c5.6,6.4 9.3,13.5 11.1,21.2 c0.9,3.8 1.5,7.5 1.8,11.1 c0.2,3.6 0.4,6.8 0.4,9.7 v66.4 h-43.6 V518.8999710083008 c0,-1.1 0,-2.5 -0.1,-4.2 c-0.1,-1.7000000000000002 -0.30000000000000004,-3.4 -0.6000000000000001,-5.2 c-0.6000000000000001,-2.8 -1.9,-5.5 -3.8,-7.9 c-1.9,-2.4 -4.9,-3.8 -8.9,-4.1 c-6,0.30000000000000004 -10.9,3 -14.7,8 c-3.8,5 -5.8,11.7 -5.8,20 v56 h-43.6 V467.69997100830074 h43.6 v10.4 c3.9,-4.6 8.9,-8.2 14.8,-10.8 zM1294.4227653503417,576.8999710083008 c-0.5,0.2 -1.6,0.7000000000000001 -3.4,1.5 c-1.8,0.9 -4.2,1.8 -7.2,2.7 c-3.3,0.9 -7.1,1.9 -11.4,2.8 c-4.3,0.9 -9,1.4 -14,1.4 l-2.4,0.2 c-19.3,-0.2 -33.8,-6.4 -43.4,-18.7 c-9.7,-12.3 -14.5,-26.5 -14.5,-42.5 c0,-16.6 5,-31 14.9,-43 c10,-12 24.3,-18 43,-18 h2.4 c2.8,0 5.5,0.2 8.1,0.5 c2.6,0.30000000000000004 5.2,0.7000000000000001 7.9,1.2 c3.1,0.8 6.4,1.8 9.7,2.9 c3.3,1.2 6.7,2.6 10.4,4.4 v35.8 h-2.4 c-3.8,-3.6 -7.9,-6.4 -12.4,-8.5 c-4.5,-2 -9,-3.1 -13.5,-3.3 c-7.9,0.30000000000000004 -13.7,3.3 -17.4,8.8 c-3.8,5.6 -5.7,12 -5.7,19.4 c0,7.7 2.1,14.1 6.4,19.3 c4.2,5.2 10.4,7.9 18.4,8.2 c3.1,-0.2 6.7,-1 10.8,-2.5 c4.1,-1.5 8.6,-4.4 13.4,-8.8 h2.4 V576.8999710083008 zm127.7,-8.4 c-5.6,5.3 -11.3,9.1 -17.3,11.7 c-6.1,2.4 -12,3.8 -17.7,4.4 c-5.6,0.5 -10,0.8 -13.2,0.8 l-2.4,0.2 c-17.1,-0.2 -31.9,-5.3 -44.4,-15.5 s-18.7,-25.4 -18.7,-45.7 c0,-17.6 5.5,-32.1 16.4,-43.7 c10.9,-11.5 26.3,-17.3 46.3,-17.3 h2.4 c18.5,0 32.3,4.4 41.2,13.2 c8.9,8.8 15,18.4 18.1,29 c1.3,4.4 2.1,8.7 2.6,12.9 c0.5,4.2 0.7000000000000001,8.2 0.7000000000000001,11.8 v3.3 h-86.6 v1.2 c0,0.9 0,1.9 0.1,2.8 c0.1,0.9 0.2,1.9 0.4,2.8 c0.9,5 3.2,9.7 6.8,13.9 c3.6,4.2 8.9,6.4 16,6.6 c5.3,-0.30000000000000004 9.8,-1.6 13.4,-4 c3.6,-2.4 6,-5.7 7.1,-10.1 h42 c-3.3,9.2 -7.7,16.5 -13.2,21.7 zm-27.9,-57.3 c-0.30000000000000004,-5.7 -2.2,-10.8 -5.8,-15.5 c-3.5,-4.7 -8.9,-7.2 -16.1,-7.5 c-6.4,0.30000000000000004 -11.6,2.7 -15.5,7.2 c-3.9,4.5 -6,9.8 -6.4,15.9 h43.8 z" fill="#091234" id="svg_3" class=""/></g></svg>