<svg xmlns="http://www.w3.org/2000/svg" xmlns:xlink="http://www.w3.org/1999/xlink" version="1.1" width="446" height="154" enable-background="new 0 0 960 560" xml:space="preserve"><rect id="backgroundrect" width="100%" height="100%" x="0" y="0" fill="none" stroke="none"/>




<g class="currentLayer" style=""><title>Layer 1</title><polygon fill="#349CD6" points="155.8199977874756,110.63300132751465 218.0699977874756,0 218.0699977874756,110.63300132751465 " id="svg_1" class=""/><polygon id="XMLID_1_" fill="#349CD6" points="224.54599571228027,110.63300132751465 224.54599571228027,38.13300132751465 266.0699977874756,110.63300132751465 " class=""/><g id="svg_2" class="">
	<path fill="#349CD6" d="M4.730224603122224e-7,123.66799974060058 c0,0 1.721,-0.29400000000000004 4.948,-0.8450000000000001 c3.23,-0.532 7.953,-1.405 13.991,-2.341 c6.067,-0.784 13.434,-1.737 21.884,-2.83 c4.235,-0.44400000000000006 8.742,-0.917 13.494,-1.415 c4.753,-0.48800000000000004 9.75,-1.032 14.978,-1.408 c10.45,-0.8140000000000001 21.768,-1.831 33.764,-2.435 c5.996,-0.3480000000000001 12.156,-0.7060000000000001 18.452,-1.071 c6.301,-0.259 12.738,-0.522 19.284,-0.791 c3.273,-0.131 6.574,-0.263 9.899000000000001,-0.3960000000000001 c3.326,-0.09100000000000003 6.675,-0.18200000000000002 10.045,-0.274 c6.741,-0.16300000000000003 13.564,-0.32800000000000007 20.441,-0.49400000000000005 c6.877,-0.16000000000000003 13.812,-0.14500000000000002 20.772,-0.22700000000000004 c6.966,-0.037000000000000005 13.938,-0.16700000000000004 20.949,-0.127 c6.982,0.06100000000000001 13.965,0.12200000000000001 20.92,0.18300000000000002 c3.478,0.031000000000000007 6.949,0.06200000000000001 10.409,0.09200000000000003 c3.461,0.04100000000000001 6.917,0.15100000000000002 10.357,0.22200000000000003 c13.761,0.30400000000000005 27.304,0.6500000000000001 40.393,1.2730000000000001 c6.545,0.29100000000000004 12.984,0.514 19.282,0.8470000000000001 c6.295,0.39200000000000007 12.454,0.774 18.449,1.147 c11.995,0.6310000000000001 23.307,1.746 33.754,2.595 c5.227,0.3950000000000001 10.219,0.987 14.97,1.5030000000000001 c4.748,0.532 9.252,1.037 13.484,1.512 c8.448,1.11 15.794,2.216 21.848,3.055 c3.022,0.458 5.699,1.022 8.035,1.449 c2.333,0.44200000000000006 4.316,0.8190000000000001 5.926,1.124 c3.216,0.6100000000000001 4.931,0.935 4.931,0.935 s-6.909,-0.996 -19.001,-2.737 c-6.075,-0.6440000000000001 -13.438,-1.51 -21.898,-2.346 c-4.238,-0.3370000000000001 -8.749,-0.6960000000000002 -13.505,-1.074 c-4.755,-0.36500000000000005 -9.743,-0.8690000000000001 -14.972,-1.1320000000000001 c-5.224,-0.32000000000000006 -10.664,-0.6520000000000001 -16.295,-0.997 c-5.627,-0.39200000000000007 -11.455,-0.6400000000000001 -17.445,-0.907 c-5.989,-0.271 -12.142,-0.551 -18.431,-0.8360000000000001 c-6.292,-0.202 -12.721,-0.40900000000000003 -19.259,-0.6190000000000001 c-3.269,-0.10500000000000001 -6.564,-0.21000000000000002 -9.884,-0.31700000000000006 c-1.6600000000000001,-0.05100000000000001 -3.326,-0.10300000000000001 -4.997,-0.15500000000000003 c-1.6710000000000003,-0.028000000000000004 -3.349,-0.05600000000000001 -5.031,-0.08400000000000002 c-6.728,-0.12400000000000001 -13.538,-0.24900000000000003 -20.402,-0.37500000000000006 c-3.433,-0.06000000000000001 -6.875,-0.15900000000000003 -10.335,-0.18800000000000003 c-3.461,-0.019000000000000003 -6.932,-0.038000000000000006 -10.41,-0.05700000000000001 c-6.956,-0.03900000000000001 -13.938,-0.07800000000000001 -20.921,-0.11700000000000002 c-6.954,-0.06300000000000001 -13.948,0.04400000000000001 -20.893,0.05700000000000001 c-6.95,0.05800000000000001 -13.874,0.020000000000000004 -20.741,0.15700000000000003 c-6.867,0.11700000000000002 -13.68,0.234 -20.411,0.3490000000000001 c-3.365,0.05800000000000001 -6.71,0.11500000000000002 -10.032,0.17200000000000001 c-3.3200000000000003,0.1 -6.616,0.19800000000000004 -9.885,0.29600000000000004 c-6.539,0.19000000000000003 -12.968,0.37600000000000006 -19.262,0.559 c-6.29,0.26 -12.444,0.515 -18.435,0.7630000000000001 c-11.987,0.43300000000000005 -23.298000000000002,1.179 -33.75,1.745 c-5.23,0.24400000000000002 -10.222,0.7050000000000001 -14.981,1.036 c-4.758,0.3450000000000001 -9.271,0.6720000000000002 -13.513,0.98 c-8.462,0.8190000000000001 -15.84,1.534 -21.916,2.122 C6.929000473022461,122.78799974060058 4.730224603122224e-7,123.66799974060058 4.730224603122224e-7,123.66799974060058 z" id="svg_3"/>
</g><g id="svg_4" class="">
	<path fill="#349CD6" stroke="#349CD6" stroke-miterlimit="10" d="M4.68300047302246,153.8389997406006 h-1.002 v-9.094 h1.1600000000000001 l2.684,6.539 l2.736,-6.539 h1.1480000000000001 v9.094 h-1.049 l0.029000000000000005,-7.043 h-0.029000000000000005 l-0.5860000000000001,1.629 l-1.6580000000000001,4.049 h-1.189 l-1.705,-4.066 l-0.539,-1.477 H4.65400047302246 l0.029000000000000005,1.477 V153.8389997406006 z" id="svg_5"/>
	<path fill="#349CD6" stroke="#349CD6" stroke-miterlimit="10" d="M32.69100047302246,154.11399974060058 c-1.2930000000000001,0 -2.283,-0.49800000000000005 -2.971,-1.494 c-0.5940000000000001,-0.8630000000000001 -0.8910000000000001,-1.9729999999999999 -0.8910000000000001,-3.3280000000000003 s0.29700000000000004,-2.465 0.8910000000000001,-3.3280000000000003 c0.6880000000000002,-0.992 1.6780000000000002,-1.488 2.971,-1.488 s2.283,0.49600000000000005 2.971,1.488 c0.5980000000000001,0.8630000000000001 0.8960000000000001,1.9729999999999999 0.8960000000000001,3.3280000000000003 s-0.29900000000000004,2.465 -0.8960000000000001,3.3280000000000003 C34.97500047302246,153.61599974060059 33.98400047302246,154.11399974060058 32.69100047302246,154.11399974060058 zM32.69100047302246,153.1999997406006 c0.934,0 1.6310000000000002,-0.44100000000000006 2.092,-1.324 c0.36300000000000004,-0.6950000000000002 0.545,-1.557 0.545,-2.584 c0,-1.023 -0.18200000000000002,-1.883 -0.545,-2.5780000000000003 c-0.461,-0.8870000000000001 -1.158,-1.33 -2.092,-1.33 c-0.93,0 -1.6270000000000002,0.44300000000000006 -2.092,1.33 c-0.36300000000000004,0.6950000000000002 -0.545,1.5550000000000002 -0.545,2.5780000000000003 s0.18200000000000002,1.883 0.545,2.5780000000000003 C31.06400047302246,152.75699974060058 31.76200047302246,153.1999997406006 32.69100047302246,153.1999997406006 z" id="svg_6"/>
	<path fill="#349CD6" stroke="#349CD6" stroke-miterlimit="10" d="M59.38100047302247,151.88199974060058 h1.096 v0.05900000000000001 c0,0.35900000000000004 -0.12300000000000001,0.7250000000000001 -0.36900000000000005,1.096 c-0.48000000000000004,0.7190000000000001 -1.318,1.078 -2.5140000000000002,1.078 c-1.336,0 -2.348,-0.48600000000000004 -3.035,-1.459 c-0.6020000000000001,-0.8480000000000001 -0.902,-1.969 -0.902,-3.363 s0.30100000000000005,-2.518 0.902,-3.369 c0.6910000000000002,-0.9690000000000001 1.705,-1.453 3.041,-1.453 c1.191,0 2.027,0.36100000000000004 2.508,1.084 c0.24600000000000002,0.37900000000000006 0.36900000000000005,0.7420000000000001 0.36900000000000005,1.09 v0.05900000000000001 h-1.096 v-0.05900000000000001 c0,-0.43400000000000005 -0.19300000000000003,-0.7620000000000001 -0.5800000000000001,-0.984 c-0.31200000000000006,-0.18400000000000002 -0.6990000000000002,-0.275 -1.1600000000000001,-0.275 c-0.984,0 -1.715,0.42800000000000005 -2.191,1.283 c-0.37900000000000006,0.6800000000000002 -0.5680000000000001,1.5550000000000002 -0.5680000000000001,2.625 s0.18900000000000003,1.947 0.5680000000000001,2.6310000000000002 c0.47300000000000003,0.8550000000000001 1.201,1.283 2.186,1.283 c0.47300000000000003,0 0.8630000000000001,-0.09000000000000002 1.172,-0.27 c0.38300000000000006,-0.22300000000000003 0.5740000000000001,-0.555 0.5740000000000001,-0.996 V151.88199974060058 z" id="svg_7"/>
	<path fill="#349CD6" stroke="#349CD6" stroke-miterlimit="10" d="M78.98000047302246,153.8389997406006 h-1.184 v-9.094 h1.184 v4.3420000000000005 l3.797,-4.3420000000000005 h1.348 l-3.7560000000000002,4.266 l4.336,4.828 h-1.482 l-4.242,-4.752 V153.8389997406006 z" id="svg_8"/>
	<path fill="#349CD6" stroke="#349CD6" stroke-miterlimit="10" d="M105.30700047302246,154.11399974060058 c-1.2930000000000001,0 -2.283,-0.49800000000000005 -2.971,-1.494 c-0.5940000000000001,-0.8630000000000001 -0.8910000000000001,-1.9729999999999999 -0.8910000000000001,-3.3280000000000003 s0.29700000000000004,-2.465 0.8910000000000001,-3.3280000000000003 c0.6880000000000002,-0.992 1.6780000000000002,-1.488 2.971,-1.488 s2.283,0.49600000000000005 2.971,1.488 c0.5980000000000001,0.8630000000000001 0.8960000000000001,1.9729999999999999 0.8960000000000001,3.3280000000000003 s-0.29900000000000004,2.465 -0.8960000000000001,3.3280000000000003 C107.59000047302246,153.61599974060059 106.60000047302246,154.11399974060058 105.30700047302246,154.11399974060058 zM105.30700047302246,153.1999997406006 c0.934,0 1.6310000000000002,-0.44100000000000006 2.092,-1.324 c0.36300000000000004,-0.6950000000000002 0.545,-1.557 0.545,-2.584 c0,-1.023 -0.18200000000000002,-1.883 -0.545,-2.5780000000000003 c-0.461,-0.8870000000000001 -1.158,-1.33 -2.092,-1.33 c-0.93,0 -1.6270000000000002,0.44300000000000006 -2.092,1.33 c-0.36300000000000004,0.6950000000000002 -0.545,1.5550000000000002 -0.545,2.5780000000000003 s0.18200000000000002,1.883 0.545,2.5780000000000003 C103.68000047302246,152.75699974060058 104.37700047302246,153.1999997406006 105.30700047302246,153.1999997406006 z" id="svg_9"/>
	<path fill="#349CD6" stroke="#349CD6" stroke-miterlimit="10" d="M130.67800047302245,149.0579997406006 c1.363,0.3320000000000001 2.045,1.098 2.045,2.297 c0,0.9490000000000001 -0.42800000000000005,1.6620000000000001 -1.283,2.1390000000000002 c-0.41000000000000003,0.23 -1.119,0.3460000000000001 -2.127,0.3460000000000001 h-2.725 v-9.094 h2.414 c1.102,0 1.842,0.07800000000000001 2.221,0.234 c0.7580000000000001,0.32000000000000006 1.137,0.8960000000000001 1.137,1.729 C132.35900047302246,147.70399974060058 131.79900047302246,148.4869997406006 130.67800047302245,149.0579997406006 zM127.77100047302247,148.6999997406006 h1.137 c0.5860000000000001,0 1.025,-0.07800000000000001 1.318,-0.234 c0.281,-0.15200000000000002 0.511,-0.37200000000000005 0.6880000000000002,-0.6590000000000001 s0.267,-0.5910000000000001 0.267,-0.911 c0,-0.8240000000000001 -0.6250000000000001,-1.236 -1.875,-1.236 h-1.5350000000000001 V148.6999997406006 zM127.77100047302247,152.93099974060058 h1.6700000000000002 c1.371,0 2.057,-0.49600000000000005 2.057,-1.488 c0,-0.6950000000000002 -0.37100000000000005,-1.219 -1.113,-1.57 c-0.37100000000000005,-0.17200000000000001 -0.9490000000000001,-0.258 -1.734,-0.258 h-0.8790000000000001 V152.93099974060058 z" id="svg_10"/>
	<path fill="#349CD6" stroke="#349CD6" stroke-miterlimit="10" d="M155.63900047302246,151.88199974060058 h1.096 v0.05900000000000001 c0,0.35900000000000004 -0.12300000000000001,0.7250000000000001 -0.36900000000000005,1.096 c-0.48000000000000004,0.7190000000000001 -1.318,1.078 -2.5140000000000002,1.078 c-1.336,0 -2.348,-0.48600000000000004 -3.035,-1.459 c-0.6020000000000001,-0.8480000000000001 -0.902,-1.969 -0.902,-3.363 s0.30100000000000005,-2.518 0.902,-3.369 c0.6910000000000002,-0.9690000000000001 1.705,-1.453 3.041,-1.453 c1.191,0 2.027,0.36100000000000004 2.508,1.084 c0.24600000000000002,0.37900000000000006 0.36900000000000005,0.7420000000000001 0.36900000000000005,1.09 v0.05900000000000001 h-1.096 v-0.05900000000000001 c0,-0.43400000000000005 -0.19300000000000003,-0.7620000000000001 -0.5800000000000001,-0.984 c-0.31200000000000006,-0.18400000000000002 -0.6990000000000002,-0.275 -1.1600000000000001,-0.275 c-0.984,0 -1.715,0.42800000000000005 -2.191,1.283 c-0.37900000000000006,0.6800000000000002 -0.5680000000000001,1.5550000000000002 -0.5680000000000001,2.625 s0.18900000000000003,1.947 0.5680000000000001,2.6310000000000002 c0.47300000000000003,0.8550000000000001 1.201,1.283 2.186,1.283 c0.47300000000000003,0 0.8630000000000001,-0.09000000000000002 1.172,-0.27 c0.38300000000000006,-0.22300000000000003 0.5740000000000001,-0.555 0.5740000000000001,-0.996 V151.88199974060058 z" id="svg_11"/>
	<path fill="#349CD6" stroke="#349CD6" stroke-miterlimit="10" d="M175.23800047302245,153.8389997406006 h-1.184 v-9.094 h1.184 v4.3420000000000005 l3.797,-4.3420000000000005 h1.348 l-3.7560000000000002,4.266 l4.336,4.828 h-1.482 l-4.242,-4.752 V153.8389997406006 z" id="svg_12"/>
	<path fill="#349CD6" stroke="#349CD6" stroke-miterlimit="10" d="M204.73400047302246,153.8389997406006 h-1.1600000000000001 l0.04700000000000001,-7.424 l-4.471,7.424 h-1.131 v-9.094 h1.1600000000000001 l-0.05900000000000001,7.447 l4.436,-7.447 h1.178 V153.8389997406006 z" id="svg_13"/>
	<path fill="#349CD6" stroke="#349CD6" stroke-miterlimit="10" d="M222.47100047302246,153.8389997406006 v-9.094 h5.139 v1.002 h-3.955 v2.865 h3.451 v0.908 h-3.451 v3.316 h4.271 v1.002 H222.47100047302246 z" id="svg_14"/>
	<path fill="#349CD6" stroke="#349CD6" stroke-miterlimit="10" d="M266.58000047302244,153.8389997406006 h-1.184 v-9.094 h6.545 v9.094 h-1.184 v-8.092 h-4.178 V153.8389997406006 z" id="svg_15"/>
	<path fill="#349CD6" stroke="#349CD6" stroke-miterlimit="10" d="M290.09400047302245,153.8389997406006 h-1.096 l3.7270000000000003,-9.094 h1.195 l3.439,9.094 h-1.2770000000000001 l-0.9430000000000001,-2.502 h-4.014 L290.09400047302245,153.8389997406006 zM291.4820004730225,150.42899974060057 h3.305 l-1.594,-4.225 L291.4820004730225,150.42899974060057 z" id="svg_16"/>
	<path fill="#349CD6" stroke="#349CD6" stroke-miterlimit="10" d="M315.59400047302245,153.8389997406006 h-1.184 v-9.094 h2.531 c0.9650000000000001,0 1.6460000000000001,0.09800000000000003 2.045,0.29300000000000004 c0.797,0.3980000000000001 1.195,1.131 1.195,2.197 c0,0.98 -0.3400000000000001,1.738 -1.02,2.273 c-0.6210000000000001,0.49200000000000005 -1.436,0.7380000000000001 -2.443,0.7380000000000001 h-1.125 V153.8389997406006 zM315.59400047302245,149.3389997406006 h0.797 c0.812,0 1.424,-0.137 1.834,-0.41000000000000003 c0.48800000000000004,-0.32800000000000007 0.7320000000000001,-0.8750000000000001 0.7320000000000001,-1.641 c0,-0.6130000000000001 -0.18600000000000003,-1.049 -0.557,-1.307 c-0.30900000000000005,-0.21500000000000002 -0.787,-0.32200000000000006 -1.436,-0.32200000000000006 h-1.371 V149.3389997406006 z" id="svg_17"/>
	<path fill="#349CD6" stroke="#349CD6" stroke-miterlimit="10" d="M339.83400047302246,153.8389997406006 v-8.092 h-3.094 v-1.002 h7.318 v1.002 h-3.047 v8.092 H339.83400047302246 z" id="svg_18"/>
	<path fill="#349CD6" stroke="#349CD6" stroke-miterlimit="10" d="M362.29300047302246,153.8389997406006 h-1.184 v-9.094 h1.184 v4.049 h4.178 v-4.049 h1.184 v9.094 h-1.184 v-4.1370000000000005 h-4.178 V153.8389997406006 z" id="svg_19"/>
	<path fill="#349CD6" stroke="#349CD6" stroke-miterlimit="10" d="M385.3910004730225,153.8389997406006 v-9.094 h5.139 v1.002 h-3.955 v2.865 h3.451 v0.908 h-3.451 v3.316 h4.271 v1.002 H385.3910004730225 z" id="svg_20"/>
	<path fill="#349CD6" stroke="#349CD6" stroke-miterlimit="10" d="M409.49000047302246,153.8389997406006 h-1.184 v-9.094 h2.531 c0.9650000000000001,0 1.6460000000000001,0.09800000000000003 2.045,0.29300000000000004 c0.797,0.3980000000000001 1.195,1.131 1.195,2.197 c0,0.98 -0.3400000000000001,1.738 -1.02,2.273 c-0.6210000000000001,0.49200000000000005 -1.436,0.7380000000000001 -2.443,0.7380000000000001 h-1.125 V153.8389997406006 zM409.49000047302246,149.3389997406006 h0.797 c0.812,0 1.424,-0.137 1.834,-0.41000000000000003 c0.48800000000000004,-0.32800000000000007 0.7320000000000001,-0.8750000000000001 0.7320000000000001,-1.641 c0,-0.6130000000000001 -0.18600000000000003,-1.049 -0.557,-1.307 c-0.30900000000000005,-0.21500000000000002 -0.787,-0.32200000000000006 -1.436,-0.32200000000000006 h-1.371 V149.3389997406006 z" id="svg_21"/>
	<path fill="#349CD6" stroke="#349CD6" stroke-miterlimit="10" d="M437.0350004730225,151.3489997406006 c0,1.066 -0.3980000000000001,1.7970000000000002 -1.195,2.191 c-0.3980000000000001,0.19900000000000004 -1.08,0.29900000000000004 -2.045,0.29900000000000004 h-2.479 v-9.094 h1.184 v3.592 h1.072 c1.008,0 1.822,0.24600000000000002 2.443,0.7380000000000001 C436.69500047302245,149.60999974060059 437.0350004730225,150.3679997406006 437.0350004730225,151.3489997406006 zM435.81000047302246,151.2959997406006 c0,-0.7660000000000001 -0.24400000000000002,-1.312 -0.7320000000000001,-1.641 c-0.41000000000000003,-0.273 -1.021,-0.41000000000000003 -1.834,-0.41000000000000003 h-0.7440000000000001 v3.686 h1.318 c0.6450000000000001,0 1.123,-0.10900000000000001 1.436,-0.32800000000000007 C435.62500047302245,152.34099974060058 435.81000047302246,151.90499974060057 435.81000047302246,151.2959997406006 zM438.24800047302244,144.74499974060058 h1.184 v9.094 h-1.184 V144.74499974060058 z" id="svg_22"/>
</g></g></svg>